<svg id="Layer_1" data-name="Layer 1" xmlns="http://www.w3.org/2000/svg" xmlns:xlink="http://www.w3.org/1999/xlink" viewBox="0 0 691.5 258"><defs><style>.cls-1{fill:none;}.cls-2{clip-path:url(#clip-path);}.cls-3{fill:#fff;}.cls-4{fill:#fefefe;}.cls-5{fill:#fdfdfe;}.cls-6{fill:#fdfdfd;}.cls-7{fill:#fcfcfc;}.cls-8{fill:#fbfbfb;}.cls-9{fill:#fafafb;}.cls-10{fill:#fafafa;}.cls-11{fill:#f9f9f9;}.cls-12{fill:#f8f8f8;}.cls-13{fill:#f7f7f7;}.cls-14{fill:#f6f6f7;}.cls-15{fill:#f5f5f6;}.cls-16{fill:#f4f4f5;}.cls-17{fill:#f3f3f4;}.cls-18{fill:#f2f2f3;}.cls-19{fill:#f1f1f2;}.cls-20{fill:#f0f0f1;}.cls-21{fill:#efefef;}.cls-22{fill:#edeeee;}.cls-23{fill:#eceded;}.cls-24{fill:#ebebec;}.cls-25{fill:#eaeaeb;}.cls-26{fill:#e8e9e9;}.cls-27{fill:#e7e8e8;}.cls-28{fill:#e6e6e7;}.cls-29{fill:#e4e5e6;}.cls-30{fill:#e3e3e4;}.cls-31{fill:#e1e2e3;}.cls-32{fill:#e0e1e1;}.cls-33{fill:#dedfe0;}.cls-34{fill:#dddedf;}.cls-35{fill:#dbdcdd;}.cls-36{fill:#dadbdc;}.cls-37{fill:#d8d9da;}.cls-38{fill:#aaa;}.cls-39{fill:#4d4d4d;}.cls-40{fill:#f7941d;}</style><clipPath id="clip-path"><path class="cls-1" d="M631.3,256.3H60.2A58.64,58.64,0,0,1,1.7,197.8V60.2A58.7,58.7,0,0,1,60.2,1.7H631.3a58.64,58.64,0,0,1,58.5,58.5V197.8A58.64,58.64,0,0,1,631.3,256.3Z"/></clipPath></defs><title>10-bitcoin-cash-donations</title><g class="cls-2"><rect class="cls-3" x="1.7" y="1.7" width="688" height="6.5"/></g><g class="cls-2"><rect class="cls-3" x="1.7" y="8.2" width="688" height="6.5"/></g><g class="cls-2"><rect class="cls-3" x="1.7" y="14.8" width="688" height="6.5"/></g><g class="cls-2"><rect class="cls-4" x="1.7" y="21.3" width="688" height="6.5"/></g><g class="cls-2"><rect class="cls-4" x="1.7" y="27.8" width="688" height="6.5"/></g><g class="cls-2"><rect class="cls-5" x="1.7" y="34.4" width="688" height="6.5"/></g><g class="cls-2"><rect class="cls-6" x="1.7" y="40.9" width="688" height="6.5"/></g><g class="cls-2"><rect class="cls-7" x="1.7" y="47.4" width="688" height="6.5"/></g><g class="cls-2"><rect class="cls-7" x="1.7" y="53.9" width="688" height="6.5"/></g><g class="cls-2"><rect class="cls-8" x="1.7" y="60.5" width="688" height="6.5"/></g><g class="cls-2"><rect class="cls-9" x="1.7" y="67" width="688" height="6.5"/></g><g class="cls-2"><rect class="cls-10" x="1.7" y="73.5" width="688" height="6.5"/></g><g class="cls-2"><rect class="cls-11" x="1.7" y="80" width="688" height="6.5"/></g><g class="cls-2"><rect class="cls-12" x="1.7" y="86.6" width="688" height="6.5"/></g><g class="cls-2"><rect class="cls-13" x="1.7" y="93.1" width="688" height="6.5"/></g><g class="cls-2"><rect class="cls-14" x="1.7" y="99.6" width="688" height="6.5"/></g><g class="cls-2"><rect class="cls-15" x="1.7" y="106.2" width="688" height="6.5"/></g><g class="cls-2"><rect class="cls-16" x="1.7" y="112.7" width="688" height="6.5"/></g><g class="cls-2"><rect class="cls-17" x="1.7" y="119.2" width="688" height="6.5"/></g><g class="cls-2"><rect class="cls-18" x="1.7" y="125.7" width="688" height="6.5"/></g><g class="cls-2"><rect class="cls-19" x="1.7" y="132.3" width="688" height="6.5"/></g><g class="cls-2"><rect class="cls-20" x="1.7" y="138.8" width="688" height="6.5"/></g><g class="cls-2"><rect class="cls-21" x="1.7" y="145.3" width="688" height="6.5"/></g><g class="cls-2"><rect class="cls-22" x="1.7" y="151.8" width="688" height="6.5"/></g><g class="cls-2"><rect class="cls-23" x="1.7" y="158.4" width="688" height="6.5"/></g><g class="cls-2"><rect class="cls-24" x="1.7" y="164.9" width="688" height="6.5"/></g><g class="cls-2"><rect class="cls-25" x="1.7" y="171.4" width="688" height="6.5"/></g><g class="cls-2"><rect class="cls-26" x="1.7" y="178" width="688" height="6.5"/></g><g class="cls-2"><rect class="cls-27" x="1.7" y="184.5" width="688" height="6.5"/></g><g class="cls-2"><rect class="cls-28" x="1.7" y="191" width="688" height="6.5"/></g><g class="cls-2"><rect class="cls-29" x="1.7" y="197.5" width="688" height="6.5"/></g><g class="cls-2"><rect class="cls-30" x="1.7" y="204.1" width="688" height="6.5"/></g><g class="cls-2"><rect class="cls-31" x="1.7" y="210.6" width="688" height="6.5"/></g><g class="cls-2"><rect class="cls-32" x="1.7" y="217.1" width="688" height="6.5"/></g><g class="cls-2"><rect class="cls-33" x="1.7" y="223.6" width="688" height="6.5"/></g><g class="cls-2"><rect class="cls-34" x="1.7" y="230.2" width="688" height="6.5"/></g><g class="cls-2"><rect class="cls-35" x="1.7" y="236.7" width="688" height="6.5"/></g><g class="cls-2"><rect class="cls-36" x="1.7" y="243.2" width="688" height="6.5"/></g><g class="cls-2"><rect class="cls-37" x="1.7" y="249.8" width="688" height="6.5"/></g><path class="cls-38" d="M631.3,258H60.2A60.261,60.261,0,0,1,0,197.8V60.2A60.261,60.261,0,0,1,60.2,0H631.3a60.261,60.261,0,0,1,60.2,60.2V197.8A60.261,60.261,0,0,1,631.3,258ZM60.2,3.4A56.8,56.8,0,0,0,3.5,60.2V197.8a56.89,56.89,0,0,0,56.8,56.8H631.4a56.89,56.89,0,0,0,56.8-56.8V60.2A56.89,56.89,0,0,0,631.4,3.4Z"/><path class="cls-39" d="M198.7,179.4a20.028,20.028,0,0,1-1.5,8,16.251,16.251,0,0,1-4.2,6,19.389,19.389,0,0,1-6.6,3.8,26.7,26.7,0,0,1-8.8,1.3c-1.2,0-2.7-.1-4.3-.2a35.447,35.447,0,0,1-4.7-.7l7.1-29.6a46.373,46.373,0,0,1,4.8-.7c1.5-.1,2.9-.2,4.2-.2a18.266,18.266,0,0,1,5.9.9,12.64,12.64,0,0,1,4.4,2.5,10.537,10.537,0,0,1,2.7,3.9A11.763,11.763,0,0,1,198.7,179.4Zm-22,13.2c.3,0,.7.1,1,.1h1.4a14.178,14.178,0,0,0,5.2-.9,10.479,10.479,0,0,0,3.9-2.5,11.307,11.307,0,0,0,2.5-4.1,15.29,15.29,0,0,0,.9-5.4,8.246,8.246,0,0,0-.4-2.8,6.113,6.113,0,0,0-1.3-2.2,5.935,5.935,0,0,0-2.3-1.4,11.786,11.786,0,0,0-3.5-.5,24.369,24.369,0,0,0-2.7.1Z"/><path class="cls-39" d="M214.2,198.7a13.477,13.477,0,0,1-5-.9,10.5,10.5,0,0,1-6.4-6.6,15.29,15.29,0,0,1-.9-5.4,20.888,20.888,0,0,1,1.2-6.9,19.175,19.175,0,0,1,3.4-6.1,16.99,16.99,0,0,1,5.5-4.4,16.02,16.02,0,0,1,7.3-1.7,13.477,13.477,0,0,1,5,.9,10.5,10.5,0,0,1,6.4,6.6,15.29,15.29,0,0,1,.9,5.4,21.46,21.46,0,0,1-4.6,13.1,16.99,16.99,0,0,1-5.5,4.4A15.4,15.4,0,0,1,214.2,198.7Zm4.4-26a7.3,7.3,0,0,0-3.8,1.1,11.774,11.774,0,0,0-3.1,2.8,13.057,13.057,0,0,0-2,4.1,14.874,14.874,0,0,0-.7,4.7,9.827,9.827,0,0,0,1.4,5.4,4.939,4.939,0,0,0,4.5,2.1,7.3,7.3,0,0,0,3.8-1.1,11.774,11.774,0,0,0,3.1-2.8,13.057,13.057,0,0,0,2-4.1,15.071,15.071,0,0,0,.7-4.8,9.827,9.827,0,0,0-1.4-5.4C222.2,173.3,220.7,172.7,218.6,172.7Z"/><path class="cls-39" d="M253.4,198.1c-1.2-3.5-2.6-7-4.1-10.4-1.5-3.5-3.2-6.8-4.9-9.9l-4.9,20.3h-6.8l7.3-30.7h5.3c.7,1,1.4,2.3,2.2,3.7s1.6,2.9,2.4,4.5,1.7,3.3,2.5,5.1,1.6,3.5,2.3,5.2l4.4-18.5H266l-7.4,30.7Z"/><path class="cls-39" d="M285,198.1c-.1-1.2-.1-2.3-.2-3.4s-.2-2.2-.2-3.3H273.1c-.6,1.1-1.2,2.2-1.9,3.3-.6,1.1-1.3,2.2-1.9,3.4h-7.2c1.9-3.3,3.7-6.4,5.4-9.2s3.3-5.4,4.8-7.9,3.1-4.8,4.5-7.1c1.5-2.2,3-4.4,4.5-6.5h6.2c.5,2.1.9,4.5,1.4,7.1.4,2.6.8,5.2,1.2,7.9s.7,5.4,1,8.1.6,5.2.9,7.6Zm-2-23.9c-1.2,2-2.5,3.9-3.7,5.9-1.2,1.9-2.4,3.9-3.5,6h8.3c-.1-1.8-.3-3.7-.5-5.8A60,60,0,0,0,283,174.2Z"/><path class="cls-39" d="M322.1,167.4l-1.4,5.8h-9l-6,24.9h-6.9l6-24.9h-9l1.4-5.8Z"/><path class="cls-39" d="M325.6,167.4h6.9l-7.4,30.7h-6.9Z"/><path class="cls-39" d="M345.9,198.7a13.477,13.477,0,0,1-5-.9,10.5,10.5,0,0,1-6.4-6.6,15.29,15.29,0,0,1-.9-5.4,20.888,20.888,0,0,1,1.2-6.9,19.175,19.175,0,0,1,3.4-6.1,16.99,16.99,0,0,1,5.5-4.4,16.02,16.02,0,0,1,7.3-1.7,13.477,13.477,0,0,1,5,.9,10.5,10.5,0,0,1,6.4,6.6,15.29,15.29,0,0,1,.9,5.4,21.46,21.46,0,0,1-4.6,13.1,16.99,16.99,0,0,1-5.5,4.4A15.683,15.683,0,0,1,345.9,198.7Zm4.4-26a7.3,7.3,0,0,0-3.8,1.1,11.774,11.774,0,0,0-3.1,2.8,13.057,13.057,0,0,0-2,4.1,14.874,14.874,0,0,0-.7,4.7,9.827,9.827,0,0,0,1.4,5.4,4.939,4.939,0,0,0,4.5,2.1,7.3,7.3,0,0,0,3.8-1.1,11.774,11.774,0,0,0,3.1-2.8,13.057,13.057,0,0,0,2-4.1,15.071,15.071,0,0,0,.7-4.8,9.827,9.827,0,0,0-1.4-5.4C353.9,173.3,352.4,172.7,350.3,172.7Z"/><path class="cls-39" d="M385,198.1c-1.2-3.5-2.6-7-4.1-10.4-1.5-3.5-3.2-6.8-4.9-9.9l-4.9,20.3h-6.8l7.3-30.7h5.3c.7,1,1.4,2.3,2.2,3.7s1.6,2.9,2.4,4.5,1.7,3.3,2.5,5.1,1.6,3.5,2.3,5.2l4.4-18.5h6.9l-7.4,30.7Z"/><path class="cls-39" d="M405.1,193a12.31,12.31,0,0,0,2-.2,5.462,5.462,0,0,0,1.8-.6,3.482,3.482,0,0,0,1.3-1.1,3.557,3.557,0,0,0,.5-1.9,2.456,2.456,0,0,0-.5-1.5,6.788,6.788,0,0,0-1.2-1.2,9.5,9.5,0,0,0-1.7-1c-.6-.3-1.2-.6-1.9-1-.8-.5-1.5-1-2.3-1.5a6.173,6.173,0,0,1-1.8-1.8,9.409,9.409,0,0,1-1.2-2.2,7.885,7.885,0,0,1-.4-2.8,9.572,9.572,0,0,1,.8-3.8,7.561,7.561,0,0,1,2.3-3,10.564,10.564,0,0,1,3.8-2,17.265,17.265,0,0,1,5.4-.7,22.816,22.816,0,0,1,2.7.2c.9.2,1.7.4,2.5.6a10.229,10.229,0,0,1,2.1.8,11.417,11.417,0,0,1,1.6.9l-2.9,5.1a8.558,8.558,0,0,0-2.7-1.4,9.893,9.893,0,0,0-3.5-.6,11.076,11.076,0,0,0-1.9.2,3.819,3.819,0,0,0-1.6.6,2.905,2.905,0,0,0-1.1,1.1,2.726,2.726,0,0,0-.4,1.6,3.339,3.339,0,0,0,.3,1.5,2.836,2.836,0,0,0,.9,1,8.342,8.342,0,0,0,1.2.8,10.93,10.93,0,0,1,1.5.8l2.7,1.5a10.179,10.179,0,0,1,2.3,1.8,6.08,6.08,0,0,1,1.5,2.4,7.455,7.455,0,0,1,.6,3.1,10.17,10.17,0,0,1-.9,4.4,8.644,8.644,0,0,1-2.6,3.1,12.211,12.211,0,0,1-4,1.8,20.638,20.638,0,0,1-5.2.6,19.827,19.827,0,0,1-3.5-.3,17.652,17.652,0,0,1-2.9-.7c-.9-.3-1.6-.6-2.3-.9a9.879,9.879,0,0,1-1.5-.9l2.9-5.3c.4.2.8.5,1.3.8s1.1.5,1.7.8c.6.2,1.3.4,2,.6A9.079,9.079,0,0,0,405.1,193Z"/><path class="cls-39" d="M450.8,198.1c-.1-1.2-.1-2.3-.2-3.4s-.2-2.2-.2-3.3H438.9c-.6,1.1-1.2,2.2-1.9,3.3a37.184,37.184,0,0,0-1.9,3.4h-7.2c1.9-3.3,3.7-6.4,5.4-9.2s3.3-5.4,4.8-7.9,3.1-4.8,4.5-7.1,3-4.4,4.5-6.5h6.2c.5,2.1.9,4.5,1.4,7.1.4,2.6.8,5.2,1.2,7.9s.7,5.4,1,8.1.6,5.2.9,7.6Zm-2.1-23.9c-1.2,2-2.5,3.9-3.7,5.9-1.2,1.9-2.4,3.9-3.5,6h8.3c-.1-1.8-.3-3.7-.5-5.8A60,60,0,0,0,448.7,174.2Z"/><path class="cls-39" d="M483.3,196.8a17.2,17.2,0,0,1-4,1.4,21.568,21.568,0,0,1-5.4.5,13.477,13.477,0,0,1-5-.9,11.6,11.6,0,0,1-3.9-2.6,11.307,11.307,0,0,1-2.5-4.1,15.29,15.29,0,0,1-.9-5.4,20.888,20.888,0,0,1,1.2-6.9,17.909,17.909,0,0,1,3.6-6.1,19.767,19.767,0,0,1,5.8-4.4,18,18,0,0,1,7.9-1.7,20.073,20.073,0,0,1,4.2.5,16.69,16.69,0,0,1,4.3,1.7l-2.5,5.4a14.018,14.018,0,0,0-3.3-1.3,15.458,15.458,0,0,0-3.1-.4,9.329,9.329,0,0,0-4.5,1,11.7,11.7,0,0,0-3.5,2.8,11.574,11.574,0,0,0-2.2,4.1,15.724,15.724,0,0,0-.8,4.9c0,2.6.6,4.5,1.7,5.7a6.418,6.418,0,0,0,4.9,1.8,15.109,15.109,0,0,0,7.2-1.6Z"/><path class="cls-39" d="M510,196.8a17.2,17.2,0,0,1-4,1.4,21.568,21.568,0,0,1-5.4.5,13.477,13.477,0,0,1-5-.9,11.6,11.6,0,0,1-3.9-2.6,11.307,11.307,0,0,1-2.5-4.1,15.29,15.29,0,0,1-.9-5.4,20.888,20.888,0,0,1,1.2-6.9,17.909,17.909,0,0,1,3.6-6.1,19.767,19.767,0,0,1,5.8-4.4,18,18,0,0,1,7.9-1.7,20.073,20.073,0,0,1,4.2.5,16.69,16.69,0,0,1,4.3,1.7l-2.5,5.4a14.018,14.018,0,0,0-3.3-1.3,15.458,15.458,0,0,0-3.1-.4,9.329,9.329,0,0,0-4.5,1,11.7,11.7,0,0,0-3.5,2.8,11.574,11.574,0,0,0-2.2,4.1,15.724,15.724,0,0,0-.8,4.9c0,2.6.6,4.5,1.7,5.7a6.418,6.418,0,0,0,4.9,1.8,15.109,15.109,0,0,0,7.2-1.6Z"/><path class="cls-39" d="M513.8,198.1l7.3-30.7h20.1l-1.4,5.7H526.7l-1.4,6.2h11.6l-1.4,5.6H523.9l-1.8,7.5h14.2l-1.4,5.7Z"/><path class="cls-39" d="M555.2,167.1a19.037,19.037,0,0,1,5,.6,12.131,12.131,0,0,1,3.8,1.7,9.179,9.179,0,0,1,2.4,2.8,7.465,7.465,0,0,1,.8,3.7,10.8,10.8,0,0,1-1.3,5.6,10.353,10.353,0,0,1-3.5,3.7,16.7,16.7,0,0,1-5.3,2,33.714,33.714,0,0,1-6.6.6h-1.7l-2.5,10.3h-6.9l7.2-30.2a39.963,39.963,0,0,1,4.5-.6C552.5,167.2,553.9,167.1,555.2,167.1Zm-.6,5.8h-1.3c-.4,0-.7.1-1.1.1l-2.1,9h1.7a17.924,17.924,0,0,0,3.4-.3,6.731,6.731,0,0,0,2.6-1,4.621,4.621,0,0,0,1.7-1.7,4.871,4.871,0,0,0,.6-2.5,3.014,3.014,0,0,0-1.4-2.8A8.726,8.726,0,0,0,554.6,172.9Z"/><path class="cls-39" d="M596.4,167.4l-1.4,5.8h-9l-6,24.9h-6.9l6-24.9h-9l1.4-5.8Z"/><path class="cls-39" d="M592.6,198.1l7.3-30.7H620l-1.4,5.7H605.5l-1.4,6.2h11.6l-1.4,5.6H602.7l-1.8,7.5h14.2l-1.4,5.7Z"/><path class="cls-39" d="M648.3,179.4a20.028,20.028,0,0,1-1.5,8,16.251,16.251,0,0,1-4.2,6,19.389,19.389,0,0,1-6.6,3.8,26.7,26.7,0,0,1-8.8,1.3c-1.2,0-2.7-.1-4.3-.2a35.447,35.447,0,0,1-4.7-.7l7.1-29.6a46.373,46.373,0,0,1,4.8-.7c1.5-.1,2.9-.2,4.2-.2a18.266,18.266,0,0,1,5.9.9,12.64,12.64,0,0,1,4.4,2.5,10.537,10.537,0,0,1,2.7,3.9A11.763,11.763,0,0,1,648.3,179.4Zm-22,13.2c.3,0,.7.1,1,.1h1.4a14.178,14.178,0,0,0,5.2-.9,10.479,10.479,0,0,0,3.9-2.5,11.307,11.307,0,0,0,2.5-4.1,15.29,15.29,0,0,0,.9-5.4,8.246,8.246,0,0,0-.4-2.8,6.113,6.113,0,0,0-1.3-2.2,5.935,5.935,0,0,0-2.3-1.4,11.786,11.786,0,0,0-3.5-.5,24.369,24.369,0,0,0-2.7.1Z"/><path class="cls-39" d="M197.051,136.15c-3.656,0-7.326-.106-10.936-.349a80.1,80.1,0,0,1-11.329-1.577V69.461a96.155,96.155,0,0,1,10.146-1.29c3.656-.3,7.068-.439,10.238-.439a66.774,66.774,0,0,1,11.724.94,27.546,27.546,0,0,1,9.207,3.109,16.314,16.314,0,0,1,6.036,5.839,17.174,17.174,0,0,1,2.184,8.9q0,8.007-7.72,12.619c4.262,1.577,7.129,3.806,8.66,6.537a19,19,0,0,1,2.321,9.342c0,7.023-2.578,12.271-7.674,15.789C214.72,134.421,207.152,136.15,197.051,136.15Zm-7.614-41.406h7.326c4.656,0,7.917-.591,9.949-1.774a6.205,6.205,0,0,0,2.973-5.734c0-2.715-1.031-4.595-3.064-5.687q-3.117-1.638-9.055-1.638c-1.289,0-2.669,0-4.155.045s-2.776.106-3.959.243c-.015,0-.015,14.545-.015,14.545Zm0,11.482v17.26c1.092.151,2.275.242,3.564.3s2.715.106,4.262.106a26,26,0,0,0,10.89-1.926c2.776-1.289,4.156-3.655,4.156-7.129,0-3.063-1.138-5.293-3.458-6.582-2.321-1.335-5.642-1.972-9.95-1.972h-9.449v-.06Z"/><path class="cls-39" d="M249,69.961a7.847,7.847,0,0,1-2.578,6.234,9.146,9.146,0,0,1-12.073,0,7.98,7.98,0,0,1-2.579-6.234,7.845,7.845,0,0,1,2.579-6.234,8.891,8.891,0,0,1,6.036-2.275,8.761,8.761,0,0,1,6.037,2.275A7.9,7.9,0,0,1,249,69.961Zm-1.38,65.355H233.27V84.6h14.348Z"/><path class="cls-39" d="M255.338,71.978l14.348-2.32V84.6h17.26V96.564h-17.26V114.37a14.4,14.4,0,0,0,1.577,7.22c1.032,1.774,3.216,2.715,6.431,2.715a27.478,27.478,0,0,0,4.747-.44,30.435,30.435,0,0,0,4.505-1.183l2.032,11.178a39.424,39.424,0,0,1-5.794,1.835,34.217,34.217,0,0,1-7.811.789,26.437,26.437,0,0,1-9.752-1.578,14.6,14.6,0,0,1-6.188-4.459,16.381,16.381,0,0,1-3.216-6.87,41.869,41.869,0,0,1-.94-8.949V71.978Z"/><path class="cls-39" d="M288.978,109.972a29.821,29.821,0,0,1,1.775-10.344,24.164,24.164,0,0,1,13.347-14.2,26.58,26.58,0,0,1,10.981-2.123,33.953,33.953,0,0,1,7.416.743,37.227,37.227,0,0,1,6.537,2.078l-2.972,11.482a38.269,38.269,0,0,0-4.459-1.335,22.565,22.565,0,0,0-5.4-.592c-4.262,0-7.417,1.335-9.494,3.959s-3.11,6.082-3.11,10.389c0,4.551.986,8.115,2.912,10.587,1.972,2.518,5.4,3.761,10.238,3.761a32.418,32.418,0,0,0,5.6-.5,23.739,23.739,0,0,0,5.49-1.532l2.033,11.77a33.577,33.577,0,0,1-6.28,1.835,42.692,42.692,0,0,1-8.311.789,31.239,31.239,0,0,1-11.967-2.078,22.611,22.611,0,0,1-8.266-5.642,21.505,21.505,0,0,1-4.7-8.418A42.292,42.292,0,0,1,288.978,109.972Z"/><path class="cls-39" d="M379.313,109.881a33.39,33.39,0,0,1-1.729,10.935,23.389,23.389,0,0,1-4.99,8.463,22.742,22.742,0,0,1-7.871,5.445,28.038,28.038,0,0,1-20.43,0,22.664,22.664,0,0,1-7.872-5.445,24.325,24.325,0,0,1-5.1-8.463,30.985,30.985,0,0,1-1.835-10.935,30.4,30.4,0,0,1,1.88-10.89,24.229,24.229,0,0,1,5.187-8.357,23.41,23.41,0,0,1,7.918-5.4,25.469,25.469,0,0,1,10-1.926,25.875,25.875,0,0,1,10.086,1.926,22.587,22.587,0,0,1,7.871,5.4,24.139,24.139,0,0,1,5.1,8.357A32.548,32.548,0,0,1,379.313,109.881Zm-14.636,0c0-4.459-.9-7.917-2.669-10.435a9.473,9.473,0,0,0-15.183,0c-1.774,2.518-2.715,6.036-2.715,10.435,0,4.459.895,7.962,2.715,10.541a9.32,9.32,0,0,0,15.183,0Q364.669,116.486,364.677,109.881Z"/><path class="cls-39" d="M400.79,69.961a7.845,7.845,0,0,1-2.579,6.234,9.146,9.146,0,0,1-12.073,0,7.983,7.983,0,0,1-2.578-6.234,7.847,7.847,0,0,1,2.578-6.234,8.9,8.9,0,0,1,6.037-2.275,8.757,8.757,0,0,1,6.036,2.275A7.9,7.9,0,0,1,400.79,69.961Zm-1.335,65.355H385.107V84.6h14.348Z"/><path class="cls-39" d="M407.615,86.326a77.853,77.853,0,0,1,9.449-1.971,79.954,79.954,0,0,1,12.118-.941A29.27,29.27,0,0,1,439.921,85.1a16.12,16.12,0,0,1,6.779,4.747,18.479,18.479,0,0,1,3.565,7.326,39.59,39.59,0,0,1,1.031,9.449v28.65H436.948V108.349c0-4.656-.591-7.917-1.835-9.844s-3.519-2.866-6.825-2.866c-1.032,0-2.124.045-3.261.152s-2.184.2-3.064.348V135.27H407.615V86.326Z"/><path class="cls-40" d="M490.533,136.651c-10.89,0-19.141-3.019-24.828-9.055s-8.509-14.591-8.509-25.723a39.671,39.671,0,0,1,2.624-14.788A31.489,31.489,0,0,1,466.948,76.1a29.969,29.969,0,0,1,10.784-6.78,39.112,39.112,0,0,1,13.6-2.32,41.7,41.7,0,0,1,7.72.637,45.782,45.782,0,0,1,6.082,1.44,30.147,30.147,0,0,1,4.353,1.684c1.138.591,1.972,1.031,2.518,1.335l-4.353,12.118a35.563,35.563,0,0,0-7.174-2.775,33.56,33.56,0,0,0-9.3-1.138,20.964,20.964,0,0,0-6.779,1.138,15.954,15.954,0,0,0-5.885,3.715,19.046,19.046,0,0,0-4.11,6.583,27.77,27.77,0,0,0-1.532,9.843,37.121,37.121,0,0,0,.986,8.615,18.845,18.845,0,0,0,3.261,6.871,15.858,15.858,0,0,0,5.93,4.6,20.846,20.846,0,0,0,8.857,1.683,42.581,42.581,0,0,0,5.885-.394,34.968,34.968,0,0,0,4.656-.941,26.449,26.449,0,0,0,3.565-1.183c1.031-.439,1.971-.894,2.775-1.243l4.156,12.073A35.21,35.21,0,0,1,504,135.119,53.264,53.264,0,0,1,490.533,136.651Z"/><path class="cls-40" d="M535.458,83.263a33.738,33.738,0,0,1,10.587,1.44,15.752,15.752,0,0,1,6.779,4.156,15.333,15.333,0,0,1,3.61,6.537,32.807,32.807,0,0,1,1.031,8.554v29.88c-2.077.439-4.9.985-8.554,1.577a84.505,84.505,0,0,1-13.3.94,40.931,40.931,0,0,1-8.9-.9,19.93,19.93,0,0,1-6.871-2.821,13.286,13.286,0,0,1-4.459-5.141,17.716,17.716,0,0,1-1.532-7.811,14.883,14.883,0,0,1,1.775-7.523,13.256,13.256,0,0,1,4.747-4.9,20.833,20.833,0,0,1,6.825-2.67,38.621,38.621,0,0,1,8.008-.834c1.881,0,3.519.106,4.945.243a18.252,18.252,0,0,1,3.518.637V103.3a7.975,7.975,0,0,0-2.229-5.885c-1.486-1.486-4.05-2.229-7.72-2.229a49.567,49.567,0,0,0-7.22.546,30.161,30.161,0,0,0-6.188,1.486l-1.835-11.572c.834-.243,1.881-.546,3.109-.834,1.244-.3,2.624-.546,4.11-.789s3.019-.394,4.657-.592C532.091,83.369,533.774,83.263,535.458,83.263Zm1.138,42c1.44,0,2.775-.045,4.049-.106a19.561,19.561,0,0,0,3.064-.3v-10.89a25.969,25.969,0,0,0-2.624-.395,24.167,24.167,0,0,0-3.17-.2,33.189,33.189,0,0,0-3.807.243,8.42,8.42,0,0,0-3.109.94,5.311,5.311,0,0,0-2.124,1.835,5.218,5.218,0,0,0-.788,2.867c0,2.23.743,3.807,2.275,4.656A11.739,11.739,0,0,0,536.6,125.26Z"/><path class="cls-40" d="M579.776,125.017a13.755,13.755,0,0,0,5.6-.788,2.979,2.979,0,0,0,1.638-2.973,3.6,3.6,0,0,0-2.124-3.018,37.623,37.623,0,0,0-6.476-2.912,57.263,57.263,0,0,1-6.127-2.624,17.214,17.214,0,0,1-4.657-3.216,12.9,12.9,0,0,1-2.972-4.5,16.742,16.742,0,0,1-1.032-6.279,13.624,13.624,0,0,1,5.294-11.285q5.277-4.163,14.545-4.155a47.942,47.942,0,0,1,8.857.834,40.986,40.986,0,0,1,6.734,1.774l-2.517,11.178a46.754,46.754,0,0,0-5.445-1.531,30.106,30.106,0,0,0-6.583-.7c-4.5,0-6.734,1.244-6.734,3.761a3.681,3.681,0,0,0,.3,1.532,3.407,3.407,0,0,0,1.138,1.289,15.27,15.27,0,0,0,2.381,1.335,33.6,33.6,0,0,0,3.807,1.577,60.253,60.253,0,0,1,7.811,3.459,19.292,19.292,0,0,1,4.854,3.655,11.747,11.747,0,0,1,2.517,4.353,18.649,18.649,0,0,1,.743,5.6c0,4.99-1.88,8.812-5.642,11.33-3.761,2.579-9.054,3.853-15.925,3.853a47.11,47.11,0,0,1-11.224-1.138A57.175,57.175,0,0,1,562.3,133.5l2.426-11.679a48.9,48.9,0,0,0,7.523,2.275A30.928,30.928,0,0,0,579.776,125.017Z"/><path class="cls-40" d="M606.652,135.316V62.833L621,60.512v24.3a33.3,33.3,0,0,1,3.716-.941,22.485,22.485,0,0,1,4.4-.44,26.648,26.648,0,0,1,10.237,1.684,16.279,16.279,0,0,1,6.537,4.747,18.723,18.723,0,0,1,3.458,7.326,39.634,39.634,0,0,1,.986,9.449v28.651H635.985V108.349c0-4.656-.591-7.917-1.774-9.844s-3.413-2.866-6.583-2.866a17.1,17.1,0,0,0-3.61.349,27.447,27.447,0,0,0-3.018.743V135.27H606.652Z"/><path class="cls-40" d="M128.258,136.505a45.847,45.847,0,0,0,0-75.088h34.455v75.088Z"/><path class="cls-40" d="M56.126,98.955a45.766,45.766,0,0,0,19.533,37.538H41.167V61.417H75.659A45.766,45.766,0,0,0,56.126,98.955Z"/><circle class="cls-40" cx="101.94" cy="98.936" r="37.512"/><path class="cls-3" d="M119.534,100.5l-.021-.039,0-.007c-.012-.039-.022-.079-.036-.122l0,0,0,0v0l0,0,0,0,0,0,0-.007a7.669,7.669,0,0,0-2.505-3.749l0,0c-.036-.027-.073-.057-.108-.084l-.049-.036-.035-.027-.015-.013-.034-.023-.015-.013-.033-.024-.015-.012-.036-.027-.018-.011-.035-.027-.019-.011-.038-.025-.019-.011-.022-.034-.021-.014-.038-.025-.02-.014-.039-.025-.02-.014-.039-.025-.02-.015-.04-.028L116.2,96l-.044-.027-.02-.014-.043-.026-.02-.015-.044-.026-.02-.014-.044-.027-.023-.012-.044-.027-.023-.012-.047-.025-.023-.013-.049-.028-.023-.012-.049-.028-.023-.012-.049-.028-.025-.016-.048-.028-.025-.015-.052-.026-.025-.015-.052-.027-.035-.018v0c-.025-.015-.052-.026-.077-.042a10.707,10.707,0,0,0-3.425-1.082,9.6,9.6,0,0,0,.917-1.153l.044-.065,0,0,.02-.032.027-.043.014-.02.026-.044.015-.02.026-.044.014-.02.027-.043.014-.02.027-.044.014-.02.023-.042.014-.02.024-.042.011-.018.023-.042.011-.018.023-.042.011-.018.021-.04.01-.019.021-.04.01-.018.021-.04.01-.019.022-.036.011-.019.022-.037.011-.018.019-.035.011-.019.018-.034.008-.017.019-.035.007-.017.019-.035.008-.016.018-.035.008-.017.015-.033.008-.017.015-.033.008-.017.015-.033.008-.017.017-.038.023-.05c.017-.038.03-.075.047-.113l0,0a6.813,6.813,0,0,0,.346-4l0,0,0-.007,0,0v0l0,0,0,0,0,0,0,0a.979.979,0,0,0-.026-.11v-.009l0,0,0,0,0,0,0,0-.015-.029c-.011-.052-.023-.1-.039-.158s-.028-.106-.043-.157l-.019-.035,0-.007-.033-.107,0,0,0,0,0,0v0l0,0,0,0,0,0a6.8,6.8,0,0,0-2.229-3.335v0c-.031-.025-.064-.048-.095-.074l-.042-.031-.033-.024-.015-.013-.029-.022-.015-.013-.028-.022-.016-.012-.029-.019-.015-.013-.034-.024-.015-.012-.033-.024-.015-.013-.034-.023-.018-.011-.034-.024-.018-.011-.034-.023-.018-.011-.037-.022-.018-.011-.037-.022-.019-.011-.036-.022-.019-.011-.037-.022-.018-.011-.039-.025-.018-.01-.039-.026-.018-.011-.042-.023L110.572,83l-.041-.023-.02-.014-.042-.024-.02-.014-.042-.023-.02-.015-.044-.026-.023-.013-.044-.026-.023-.013-.047-.024-.023-.013-.047-.025-.033-.015,0,0-.07-.038a10.287,10.287,0,0,0-7.27-.712l-.681.175-1.723-6.709-3.992,1.024,1.717,6.682-3.194.819L93.17,77.311l-3.992,1.024L90.9,85.017l-8.234,2.119,1.1,4.257,3.318-.852a2.054,2.054,0,0,1,2.5,1.477v0h0l4.6,17.916a1.371,1.371,0,0,1-.986,1.668l-2.907.748.171,5.064,8.224-2.114,1.74,6.67,3.99-1.026-1.719-6.686,3.194-.819,1.719,6.686,3.99-1.027-1.724-6.711c.676-.177,1.258-.327,1.66-.431a11.592,11.592,0,0,0,6.781-4.647l.049-.072,0,0,.024-.033.031-.05.015-.025.032-.051.015-.025.028-.048.015-.025.028-.049.013-.023.028-.049.012-.023.028-.048.012-.024.025-.047.013-.023.025-.047.012-.023.027-.044.012-.023.026-.044.013-.023.023-.042.013-.023.023-.042.013-.023.023-.042.009-.022.024-.042.009-.021.02-.04.011-.019.02-.04.011-.018.02-.04.011-.019.02-.04.011-.018.02-.04.011-.019.02-.04.011-.018.017-.039.011-.018.016-.038.008-.017.019-.043.024-.055c.019-.043.039-.084.054-.125v0a7.67,7.67,0,0,0,.391-4.494l0,0,0,0,0,0,0,0v0l0,0,0,0,0,0-.028-.122v-.008l0,0,0,0v0l0,0,0,0,0,0v0l0,0,0,0,0,0,0,0v0l0,0-.007-.013c-.015-.059-.027-.119-.045-.176C119.546,100.626,119.538,100.564,119.534,100.5ZM96.077,88.509c.681-.175,3.5-.882,4.426-1.124a6.013,6.013,0,0,1,4.067.316l.038.017h0l.017.008.023.012.012.006.023.013.012.006.023.012.012.007.023.012.012.006.024.013.011.006.024.012.012.007.023.012.012.006.023.013.012.006.023.012.012.007.02.014.012.006.02.014.012.006.02.015.011.006.019.011.012.006.018.011.012.006.018.011.012.006.019.011.011.007.019.01.008.008.019.011.006.005.019.011.006,0,.019.011.007,0,.018.011.007.005.015.013.007,0,.018.011.025.016c.019.01.036.027.054.037h0a3.442,3.442,0,0,1,1.22,1.748h0l.005.01.019.057,0,0,.01.02c.007.029.016.054.024.083a.467.467,0,0,1,.015.091l.01.019,0,0a.274.274,0,0,0,.015.058l.006.01h0a3.459,3.459,0,0,1-.228,2.119h0l-.026.059-.014.029-.011.018,0,.01-.008.017,0,.01-.011.018,0,.01-.011.018,0,.01-.011.019,0,.01-.011.018,0,.01-.011.018,0,.01-.01.018-.007.012-.011.018-.006.012-.011.019-.006.012-.011.018-.006.012-.014.02-.007.012-.014.02-.006.011-.014.02-.007.012-.014.02-.006.012-.014.02-.006.012-.015.02-.006.012-.014.02-.006.011-.015.021-.006.011-.017.022-.006.012-.018.022-.006.012-.017.022-.007.011-.017.022-.013.016h0l-.023.033a6,6,0,0,1-3.414,2.237c-.93.239-3.739.975-4.42,1.15Zm15.605,13.737.01.019,0,0c0,.023.009.041.013.064h0l0,0h0l0,0,0,0,0,0h0a3.547,3.547,0,0,1-.322,2.315h0l-.035.065-.017.031-.013.023-.006.012-.011.018-.006.012-.011.019-.006.011-.015.02-.006.012-.014.02-.006.012-.014.02-.007.012-.014.02-.006.012-.014.02-.007.011-.014.02-.006.012-.014.02-.007.012-.014.02-.006.012-.014.02-.007.012-.017.022-.006.011-.017.022-.007.012-.015.025-.006.012-.015.025-.007.012L111,105.3l-.009.013-.015.025-.01.014-.019.026-.009.014-.019.027-.009.013-.019.027-.01.013-.019.027-.009.014-.019.026-.015.017h0l-.031.037a7.561,7.561,0,0,1-4.076,2.524c-1.1.284-4.43,1.155-5.24,1.361L99.2,100.666c.808-.21,4.146-1.048,5.248-1.333a7.575,7.575,0,0,1,4.787.245l.044.019h0l.021.009.032.012.015.005.028.013.015.005.029.014.015,0,.028.014.012.006.028.014.012.006.028.014.012.007.028.013.012.007.024.012.011.006.024.013.012.006.023.012.012.007.023.012.012.006.023.013.012.006.023.012.012.007.023.012.012.006.024.012.011.007.024.012.012.006.02.015.011.006.02.014.012.006.02.015.012.006.02.014.012.006.02.014.012.007.018.011.012.006.02.014.027.019.063.041h0a3.552,3.552,0,0,1,1.4,1.874h0l.007.013c.007.021.012.039.02.06v0l.011.019c.007.029.015.059.024.091.014,0,.017.04.012.084Z"/></svg>