<svg id="_11-bitcoin-cash-donations-orange" data-name=" 11-bitcoin-cash-donations-orange" xmlns="http://www.w3.org/2000/svg" xmlns:xlink="http://www.w3.org/1999/xlink" viewBox="0 0 688.1 254.6"><defs><style>.cls-1{fill:none;}.cls-2{fill:#f7941d;}.cls-3{clip-path:url(#clip-path);}.cls-4{fill:#fff;}</style><clipPath id="clip-path"><path class="cls-1" d="M629.6,254.6H58.5A58.64,58.64,0,0,1,0,196.1V58.5A58.7,58.7,0,0,1,58.5,0H629.6a58.64,58.64,0,0,1,58.5,58.5V196.1A58.64,58.64,0,0,1,629.6,254.6Z"/></clipPath></defs><title>11-bitcoin-cash-donations-orange</title><path id="SVGID" class="cls-2" d="M629.6,254.6H58.5A58.64,58.64,0,0,1,0,196.1V58.5A58.7,58.7,0,0,1,58.5,0H629.6a58.64,58.64,0,0,1,58.5,58.5V196.1A58.64,58.64,0,0,1,629.6,254.6Z"/><g class="cls-3"><rect class="cls-2" width="688" height="6.5"/></g><g class="cls-3"><rect class="cls-2" y="6.5" width="688" height="6.5"/></g><g class="cls-3"><rect class="cls-2" y="13.1" width="688" height="6.5"/></g><g class="cls-3"><rect class="cls-2" y="19.6" width="688" height="6.5"/></g><g class="cls-3"><rect class="cls-2" y="26.1" width="688" height="6.5"/></g><g class="cls-3"><rect class="cls-2" y="32.7" width="688" height="6.5"/></g><g class="cls-3"><rect class="cls-2" y="39.2" width="688" height="6.5"/></g><g class="cls-3"><rect class="cls-2" y="45.7" width="688" height="6.5"/></g><g class="cls-3"><rect class="cls-2" y="52.2" width="688" height="6.5"/></g><g class="cls-3"><rect class="cls-2" y="58.8" width="688" height="6.5"/></g><g class="cls-3"><rect class="cls-2" y="65.3" width="688" height="6.5"/></g><g class="cls-3"><rect class="cls-2" y="71.8" width="688" height="6.5"/></g><g class="cls-3"><rect class="cls-2" y="78.3" width="688" height="6.5"/></g><g class="cls-3"><rect class="cls-2" y="84.9" width="688" height="6.5"/></g><g class="cls-3"><rect class="cls-2" y="91.4" width="688" height="6.5"/></g><g class="cls-3"><rect class="cls-2" y="97.9" width="688" height="6.5"/></g><g class="cls-3"><rect class="cls-2" y="104.5" width="688" height="6.5"/></g><g class="cls-3"><rect class="cls-2" y="111" width="688" height="6.5"/></g><g class="cls-3"><rect class="cls-2" y="117.5" width="688" height="6.5"/></g><g class="cls-3"><rect class="cls-2" y="124" width="688" height="6.5"/></g><g class="cls-3"><rect class="cls-2" y="130.6" width="688" height="6.5"/></g><g class="cls-3"><rect class="cls-2" y="137.1" width="688" height="6.5"/></g><g class="cls-3"><rect class="cls-2" y="143.6" width="688" height="6.5"/></g><g class="cls-3"><rect class="cls-2" y="150.1" width="688" height="6.5"/></g><g class="cls-3"><rect class="cls-2" y="156.7" width="688" height="6.5"/></g><g class="cls-3"><rect class="cls-2" y="163.2" width="688" height="6.5"/></g><g class="cls-3"><rect class="cls-2" y="169.7" width="688" height="6.5"/></g><g class="cls-3"><rect class="cls-2" y="176.3" width="688" height="6.5"/></g><g class="cls-3"><rect class="cls-2" y="182.8" width="688" height="6.5"/></g><g class="cls-3"><rect class="cls-2" y="189.3" width="688" height="6.5"/></g><g class="cls-3"><rect class="cls-2" y="195.8" width="688" height="6.5"/></g><g class="cls-3"><rect class="cls-2" y="202.4" width="688" height="6.5"/></g><g class="cls-3"><rect class="cls-2" y="208.9" width="688" height="6.5"/></g><g class="cls-3"><rect class="cls-2" y="215.4" width="688" height="6.5"/></g><g class="cls-3"><rect class="cls-2" y="221.9" width="688" height="6.5"/></g><g class="cls-3"><rect class="cls-2" y="228.5" width="688" height="6.5"/></g><g class="cls-3"><rect class="cls-2" y="235" width="688" height="6.5"/></g><g class="cls-3"><rect class="cls-2" y="241.5" width="688" height="6.5"/></g><g class="cls-3"><rect class="cls-2" y="248.1" width="688" height="6.5"/></g><path class="cls-4" d="M197,176.7a20.032,20.032,0,0,1-1.5,8,16.245,16.245,0,0,1-4.2,6,19.378,19.378,0,0,1-6.6,3.8,26.706,26.706,0,0,1-8.8,1.3c-1.2,0-2.7-.1-4.3-.2a35.472,35.472,0,0,1-4.7-.7l7.1-29.6a46.249,46.249,0,0,1,4.8-.7c1.5-.1,2.9-.2,4.2-.2a18.29,18.29,0,0,1,5.9.9,12.644,12.644,0,0,1,4.4,2.5,10.538,10.538,0,0,1,2.7,3.9A11.763,11.763,0,0,1,197,176.7Zm-22,13.2c.3,0,.7.1,1,.1h1.4a14.178,14.178,0,0,0,5.2-.9,10.478,10.478,0,0,0,3.9-2.5,11.309,11.309,0,0,0,2.5-4.1,15.307,15.307,0,0,0,.9-5.4,8.235,8.235,0,0,0-.4-2.8,6.128,6.128,0,0,0-1.3-2.2,5.924,5.924,0,0,0-2.3-1.4,11.786,11.786,0,0,0-3.5-.5,24.333,24.333,0,0,0-2.7.1Z"/><path class="cls-4" d="M212.5,196a13.477,13.477,0,0,1-5-.9,10.5,10.5,0,0,1-6.4-6.6,15.307,15.307,0,0,1-.9-5.4,20.905,20.905,0,0,1,1.2-6.9,19.173,19.173,0,0,1,3.4-6.1,16.979,16.979,0,0,1,5.5-4.4,16.013,16.013,0,0,1,7.3-1.7,13.477,13.477,0,0,1,5,.9,10.5,10.5,0,0,1,6.4,6.6,15.307,15.307,0,0,1,.9,5.4,21.454,21.454,0,0,1-4.6,13.1,16.979,16.979,0,0,1-5.5,4.4A15.4,15.4,0,0,1,212.5,196Zm4.4-26a7.3,7.3,0,0,0-3.8,1.1,11.763,11.763,0,0,0-3.1,2.8,13.068,13.068,0,0,0-2,4.1,14.867,14.867,0,0,0-.7,4.7,9.822,9.822,0,0,0,1.4,5.4,4.939,4.939,0,0,0,4.5,2.1,7.3,7.3,0,0,0,3.8-1.1,11.763,11.763,0,0,0,3.1-2.8,13.068,13.068,0,0,0,2-4.1,15.083,15.083,0,0,0,.7-4.8,9.83,9.83,0,0,0-1.4-5.4C220.5,170.6,219,170,216.9,170Z"/><path class="cls-4" d="M251.7,195.4c-1.2-3.5-2.6-7-4.1-10.4-1.5-3.5-3.2-6.8-4.9-9.9l-4.9,20.3H231l7.3-30.7h5.3c.7,1,1.4,2.3,2.2,3.7s1.6,2.9,2.4,4.5,1.7,3.3,2.5,5.1,1.6,3.5,2.3,5.2l4.4-18.5h6.9l-7.4,30.7Z"/><path class="cls-4" d="M283.3,195.4c-.1-1.2-.1-2.3-.2-3.4s-.2-2.2-.2-3.3H271.4c-.6,1.1-1.2,2.2-1.9,3.3-.6,1.1-1.3,2.2-1.9,3.4h-7.2c1.9-3.3,3.7-6.4,5.4-9.2s3.3-5.4,4.8-7.9,3.1-4.8,4.5-7.1c1.5-2.2,3-4.4,4.5-6.5h6.2c.5,2.1.9,4.5,1.4,7.1.4,2.6.8,5.2,1.2,7.9s.7,5.4,1,8.1.6,5.2.9,7.6Zm-2-23.9c-1.2,2-2.5,3.9-3.7,5.9-1.2,1.9-2.4,3.9-3.5,6h8.3c-.1-1.8-.3-3.7-.5-5.8A59.971,59.971,0,0,0,281.3,171.5Z"/><path class="cls-4" d="M320.4,164.7l-1.4,5.8h-9l-6,24.9h-6.9l6-24.9h-9l1.4-5.8Z"/><path class="cls-4" d="M323.9,164.7h6.9l-7.4,30.7h-6.9Z"/><path class="cls-4" d="M344.2,196a13.477,13.477,0,0,1-5-.9,10.5,10.5,0,0,1-6.4-6.6,15.307,15.307,0,0,1-.9-5.4,20.905,20.905,0,0,1,1.2-6.9,19.173,19.173,0,0,1,3.4-6.1,16.979,16.979,0,0,1,5.5-4.4,16.016,16.016,0,0,1,7.3-1.7,13.477,13.477,0,0,1,5,.9,10.5,10.5,0,0,1,6.4,6.6,15.307,15.307,0,0,1,.9,5.4A21.454,21.454,0,0,1,357,190a16.979,16.979,0,0,1-5.5,4.4A15.676,15.676,0,0,1,344.2,196Zm4.4-26a7.3,7.3,0,0,0-3.8,1.1,11.763,11.763,0,0,0-3.1,2.8,13.068,13.068,0,0,0-2,4.1,14.867,14.867,0,0,0-.7,4.7,9.83,9.83,0,0,0,1.4,5.4,4.939,4.939,0,0,0,4.5,2.1,7.3,7.3,0,0,0,3.8-1.1,11.763,11.763,0,0,0,3.1-2.8,13.068,13.068,0,0,0,2-4.1,15.083,15.083,0,0,0,.7-4.8,9.83,9.83,0,0,0-1.4-5.4C352.2,170.6,350.7,170,348.6,170Z"/><path class="cls-4" d="M383.3,195.4c-1.2-3.5-2.6-7-4.1-10.4-1.5-3.5-3.2-6.8-4.9-9.9l-4.9,20.3h-6.8l7.3-30.7h5.3c.7,1,1.4,2.3,2.2,3.7s1.6,2.9,2.4,4.5,1.7,3.3,2.5,5.1,1.6,3.5,2.3,5.2l4.4-18.5h6.9l-7.4,30.7Z"/><path class="cls-4" d="M403.4,190.3a12.313,12.313,0,0,0,2-.2,5.463,5.463,0,0,0,1.8-.6,3.475,3.475,0,0,0,1.3-1.1,3.555,3.555,0,0,0,.5-1.9,2.461,2.461,0,0,0-.5-1.5,6.748,6.748,0,0,0-1.2-1.2,9.477,9.477,0,0,0-1.7-1c-.6-.3-1.2-.6-1.9-1-.8-.5-1.5-1-2.3-1.5a6.152,6.152,0,0,1-1.8-1.8,9.416,9.416,0,0,1-1.2-2.2,7.875,7.875,0,0,1-.4-2.8,9.561,9.561,0,0,1,.8-3.8,7.558,7.558,0,0,1,2.3-3,10.552,10.552,0,0,1,3.8-2,17.244,17.244,0,0,1,5.4-.7,22.791,22.791,0,0,1,2.7.2c.9.2,1.7.4,2.5.6a10.26,10.26,0,0,1,2.1.8,11.469,11.469,0,0,1,1.6.9l-2.9,5.1a8.568,8.568,0,0,0-2.7-1.4,9.9,9.9,0,0,0-3.5-.6,11.116,11.116,0,0,0-1.9.2,3.827,3.827,0,0,0-1.6.6,2.905,2.905,0,0,0-1.1,1.1,2.728,2.728,0,0,0-.4,1.6,3.34,3.34,0,0,0,.3,1.5,2.825,2.825,0,0,0,.9,1,8.293,8.293,0,0,0,1.2.8,10.949,10.949,0,0,1,1.5.8l2.7,1.5a10.184,10.184,0,0,1,2.3,1.8,6.075,6.075,0,0,1,1.5,2.4,7.452,7.452,0,0,1,.6,3.1,10.167,10.167,0,0,1-.9,4.4,8.642,8.642,0,0,1-2.6,3.1,12.211,12.211,0,0,1-4,1.8,20.611,20.611,0,0,1-5.2.6,19.835,19.835,0,0,1-3.5-.3,17.606,17.606,0,0,1-2.9-.7c-.9-.3-1.6-.6-2.3-.9a9.818,9.818,0,0,1-1.5-.9l2.9-5.3c.4.2.8.5,1.3.8s1.1.5,1.7.8c.6.2,1.3.4,2,.6A9.068,9.068,0,0,0,403.4,190.3Z"/><path class="cls-4" d="M449.1,195.4c-.1-1.2-.1-2.3-.2-3.4s-.2-2.2-.2-3.3H437.2c-.6,1.1-1.2,2.2-1.9,3.3a37.291,37.291,0,0,0-1.9,3.4h-7.2c1.9-3.3,3.7-6.4,5.4-9.2s3.3-5.4,4.8-7.9,3.1-4.8,4.5-7.1,3-4.4,4.5-6.5h6.2c.5,2.1.9,4.5,1.4,7.1.4,2.6.8,5.2,1.2,7.9s.7,5.4,1,8.1.6,5.2.9,7.6ZM447,171.5c-1.2,2-2.5,3.9-3.7,5.9-1.2,1.9-2.4,3.9-3.5,6h8.3c-.1-1.8-.3-3.7-.5-5.8A59.971,59.971,0,0,0,447,171.5Z"/><path class="cls-4" d="M481.6,194.1a17.2,17.2,0,0,1-4,1.4,21.587,21.587,0,0,1-5.4.5,13.477,13.477,0,0,1-5-.9,11.6,11.6,0,0,1-3.9-2.6,11.309,11.309,0,0,1-2.5-4.1,15.307,15.307,0,0,1-.9-5.4,20.905,20.905,0,0,1,1.2-6.9,17.906,17.906,0,0,1,3.6-6.1,19.768,19.768,0,0,1,5.8-4.4,18.006,18.006,0,0,1,7.9-1.7,20.055,20.055,0,0,1,4.2.5,16.687,16.687,0,0,1,4.3,1.7l-2.5,5.4a14.039,14.039,0,0,0-3.3-1.3,15.421,15.421,0,0,0-3.1-.4,9.328,9.328,0,0,0-4.5,1,11.7,11.7,0,0,0-3.5,2.8,11.583,11.583,0,0,0-2.2,4.1,15.756,15.756,0,0,0-.8,4.9c0,2.6.6,4.5,1.7,5.7a6.42,6.42,0,0,0,4.9,1.8,15.1,15.1,0,0,0,7.2-1.6Z"/><path class="cls-4" d="M508.3,194.1a17.2,17.2,0,0,1-4,1.4,21.587,21.587,0,0,1-5.4.5,13.477,13.477,0,0,1-5-.9,11.6,11.6,0,0,1-3.9-2.6,11.309,11.309,0,0,1-2.5-4.1,15.307,15.307,0,0,1-.9-5.4,20.905,20.905,0,0,1,1.2-6.9,17.906,17.906,0,0,1,3.6-6.1,19.768,19.768,0,0,1,5.8-4.4,18.006,18.006,0,0,1,7.9-1.7,20.055,20.055,0,0,1,4.2.5,16.687,16.687,0,0,1,4.3,1.7l-2.5,5.4a14.022,14.022,0,0,0-3.3-1.3,15.421,15.421,0,0,0-3.1-.4,9.328,9.328,0,0,0-4.5,1,11.7,11.7,0,0,0-3.5,2.8,11.583,11.583,0,0,0-2.2,4.1,15.756,15.756,0,0,0-.8,4.9c0,2.6.6,4.5,1.7,5.7a6.42,6.42,0,0,0,4.9,1.8,15.1,15.1,0,0,0,7.2-1.6Z"/><path class="cls-4" d="M512.1,195.4l7.3-30.7h20.1l-1.4,5.7H525l-1.4,6.2h11.6l-1.4,5.6H522.2l-1.8,7.5h14.2l-1.4,5.7Z"/><path class="cls-4" d="M553.5,164.4a19.031,19.031,0,0,1,5,.6,12.128,12.128,0,0,1,3.8,1.7,9.174,9.174,0,0,1,2.4,2.8,7.462,7.462,0,0,1,.8,3.7,10.8,10.8,0,0,1-1.3,5.6,10.345,10.345,0,0,1-3.5,3.7,16.69,16.69,0,0,1-5.3,2,33.756,33.756,0,0,1-6.6.6h-1.7l-2.5,10.3h-6.9l7.2-30.2a40.079,40.079,0,0,1,4.5-.6C550.8,164.5,552.2,164.4,553.5,164.4Zm-.6,5.8h-1.3c-.4,0-.7.1-1.1.1l-2.1,9h1.7a17.95,17.95,0,0,0,3.4-.3,6.721,6.721,0,0,0,2.6-1,4.621,4.621,0,0,0,1.7-1.7,4.87,4.87,0,0,0,.6-2.5A3.013,3.013,0,0,0,557,171,8.726,8.726,0,0,0,552.9,170.2Z"/><path class="cls-4" d="M594.7,164.7l-1.4,5.8h-9l-6,24.9h-6.9l6-24.9h-9l1.4-5.8Z"/><path class="cls-4" d="M590.9,195.4l7.3-30.7h20.1l-1.4,5.7H603.8l-1.4,6.2H614l-1.4,5.6H601l-1.8,7.5h14.2l-1.4,5.7Z"/><path class="cls-4" d="M646.6,176.7a20.032,20.032,0,0,1-1.5,8,16.245,16.245,0,0,1-4.2,6,19.378,19.378,0,0,1-6.6,3.8,26.706,26.706,0,0,1-8.8,1.3c-1.2,0-2.7-.1-4.3-.2a35.472,35.472,0,0,1-4.7-.7l7.1-29.6a46.249,46.249,0,0,1,4.8-.7c1.5-.1,2.9-.2,4.2-.2a18.29,18.29,0,0,1,5.9.9,12.644,12.644,0,0,1,4.4,2.5,10.538,10.538,0,0,1,2.7,3.9A11.763,11.763,0,0,1,646.6,176.7Zm-22,13.2c.3,0,.7.1,1,.1H627a14.178,14.178,0,0,0,5.2-.9,10.478,10.478,0,0,0,3.9-2.5,11.309,11.309,0,0,0,2.5-4.1,15.307,15.307,0,0,0,.9-5.4,8.235,8.235,0,0,0-.4-2.8,6.1,6.1,0,0,0-1.3-2.2,5.924,5.924,0,0,0-2.3-1.4,11.786,11.786,0,0,0-3.5-.5,24.342,24.342,0,0,0-2.7.1Z"/><path class="cls-4" d="M195.343,134.583c-3.673,0-7.362-.107-10.99-.351a80.611,80.611,0,0,1-11.386-1.585V67.561a96.649,96.649,0,0,1,10.2-1.3q5.51-.45,10.288-.442a67.123,67.123,0,0,1,11.783.945,27.72,27.72,0,0,1,9.252,3.125,16.384,16.384,0,0,1,6.067,5.869,17.251,17.251,0,0,1,2.2,8.947q0,8.047-7.759,12.682c4.283,1.585,7.164,3.826,8.7,6.569a19.109,19.109,0,0,1,2.332,9.39c0,7.057-2.592,12.331-7.713,15.867C213.1,132.845,205.5,134.583,195.343,134.583ZM187.692,92.97h7.362c4.679,0,7.956-.594,10-1.783a6.235,6.235,0,0,0,2.987-5.762c0-2.728-1.036-4.618-3.079-5.716q-3.132-1.646-9.1-1.646c-1.3,0-2.683,0-4.177.046s-2.789.107-3.978.244C187.692,78.353,187.692,92.97,187.692,92.97Zm0,11.539v17.346c1.1.153,2.286.244,3.582.3s2.728.107,4.283.107a26.122,26.122,0,0,0,10.944-1.936c2.789-1.3,4.176-3.674,4.176-7.164,0-3.079-1.143-5.32-3.475-6.615-2.332-1.342-5.67-1.982-10-1.982h-9.5V104.5Z"/><path class="cls-4" d="M247.549,68.064a7.886,7.886,0,0,1-2.591,6.265,9.193,9.193,0,0,1-12.133,0,8.02,8.02,0,0,1-2.591-6.265,7.886,7.886,0,0,1,2.591-6.265,8.928,8.928,0,0,1,6.066-2.286,8.8,8.8,0,0,1,6.067,2.286A7.935,7.935,0,0,1,247.549,68.064Zm-1.387,65.68H231.743V82.773h14.419Z"/><path class="cls-4" d="M253.921,70.091l14.419-2.332V82.773h17.346V94.8H268.34v17.894a14.478,14.478,0,0,0,1.585,7.256c1.037,1.783,3.232,2.728,6.463,2.728a27.46,27.46,0,0,0,4.771-.442,30.487,30.487,0,0,0,4.527-1.189l2.043,11.234a39.736,39.736,0,0,1-5.823,1.844,34.469,34.469,0,0,1-7.85.793,26.6,26.6,0,0,1-9.8-1.585,14.691,14.691,0,0,1-6.219-4.482,16.466,16.466,0,0,1-3.231-6.9,42.091,42.091,0,0,1-.945-8.994V70.091Z"/><path class="cls-4" d="M287.729,108.274a29.968,29.968,0,0,1,1.783-10.395,24.285,24.285,0,0,1,13.413-14.268,26.706,26.706,0,0,1,11.036-2.134,34.069,34.069,0,0,1,7.454.747,37.453,37.453,0,0,1,6.569,2.089L325,95.851a38.66,38.66,0,0,0-4.482-1.341,22.674,22.674,0,0,0-5.426-.595c-4.283,0-7.454,1.342-9.542,3.979s-3.125,6.112-3.125,10.441c0,4.573.991,8.155,2.927,10.639,1.982,2.531,5.426,3.78,10.289,3.78a32.53,32.53,0,0,0,5.624-.5,23.816,23.816,0,0,0,5.518-1.539l2.043,11.828a33.638,33.638,0,0,1-6.311,1.844,42.812,42.812,0,0,1-8.353.793,31.383,31.383,0,0,1-12.026-2.088,22.723,22.723,0,0,1-8.307-5.67,21.593,21.593,0,0,1-4.726-8.46A42.451,42.451,0,0,1,287.729,108.274Z"/><path class="cls-4" d="M378.513,108.182a33.588,33.588,0,0,1-1.737,10.99,23.523,23.523,0,0,1-5.015,8.506,22.877,22.877,0,0,1-7.911,5.472,28.19,28.19,0,0,1-20.532,0,22.805,22.805,0,0,1-7.911-5.472,24.452,24.452,0,0,1-5.121-8.506,31.157,31.157,0,0,1-1.844-10.99,30.535,30.535,0,0,1,1.89-10.944,24.331,24.331,0,0,1,5.213-8.4,23.51,23.51,0,0,1,7.956-5.427,25.613,25.613,0,0,1,10.045-1.936,26.007,26.007,0,0,1,10.136,1.936,22.682,22.682,0,0,1,7.911,5.427,24.263,24.263,0,0,1,5.122,8.4A32.707,32.707,0,0,1,378.513,108.182Zm-14.709,0c0-4.481-.9-7.956-2.682-10.486a9.519,9.519,0,0,0-15.258,0c-1.784,2.53-2.729,6.066-2.729,10.486,0,4.482.9,8,2.729,10.594a9.366,9.366,0,0,0,15.258,0q2.677-3.956,2.678-10.594Z"/><path class="cls-4" d="M400.1,68.064a7.886,7.886,0,0,1-2.591,6.265,9.193,9.193,0,0,1-12.133,0,8.021,8.021,0,0,1-2.592-6.265,7.889,7.889,0,0,1,2.592-6.265,8.928,8.928,0,0,1,6.066-2.286,8.8,8.8,0,0,1,6.067,2.286A7.939,7.939,0,0,1,400.1,68.064Zm-1.341,65.68h-14.42V82.773h14.42Z"/><path class="cls-4" d="M406.956,84.511a78.462,78.462,0,0,1,9.5-1.982,80.49,80.49,0,0,1,12.179-.945,29.43,29.43,0,0,1,10.792,1.692,16.2,16.2,0,0,1,6.813,4.771,18.562,18.562,0,0,1,3.582,7.362,39.751,39.751,0,0,1,1.037,9.5V133.7h-14.42V106.643c0-4.679-.594-7.957-1.844-9.892s-3.536-2.881-6.859-2.881c-1.037,0-2.134.045-3.277.152s-2.195.2-3.079.351V133.7H406.96V84.511Z"/><path class="cls-4" d="M490.287,135.086c-10.944,0-19.236-3.034-24.952-9.1s-8.551-14.664-8.551-25.852a39.88,39.88,0,0,1,2.637-14.861,31.663,31.663,0,0,1,7.164-11.036,30.126,30.126,0,0,1,10.838-6.813A39.308,39.308,0,0,1,491.1,65.092a41.95,41.95,0,0,1,7.759.64,45.924,45.924,0,0,1,6.112,1.448,30.287,30.287,0,0,1,4.375,1.692c1.143.594,1.981,1.036,2.53,1.341L507.5,82.392a35.7,35.7,0,0,0-7.21-2.789,33.743,33.743,0,0,0-9.343-1.144,21.121,21.121,0,0,0-6.814,1.144,16.031,16.031,0,0,0-5.914,3.734,19.155,19.155,0,0,0-4.131,6.615,27.948,27.948,0,0,0-1.539,9.893,37.328,37.328,0,0,0,.991,8.658,18.961,18.961,0,0,0,3.277,6.9,15.914,15.914,0,0,0,5.96,4.619,20.938,20.938,0,0,0,8.9,1.692,42.7,42.7,0,0,0,5.914-.4,35.327,35.327,0,0,0,4.68-.945,26.893,26.893,0,0,0,3.582-1.189c1.036-.442,1.981-.9,2.789-1.25l4.177,12.133a35.37,35.37,0,0,1-8.993,3.475A53.51,53.51,0,0,1,490.287,135.086Z"/><path class="cls-4" d="M535.436,81.432a33.881,33.881,0,0,1,10.639,1.448,15.828,15.828,0,0,1,6.814,4.176,15.434,15.434,0,0,1,3.627,6.57,32.947,32.947,0,0,1,1.037,8.6v30.028c-2.088.442-4.923.99-8.6,1.585a84.835,84.835,0,0,1-13.368.945,41.127,41.127,0,0,1-8.947-.9,20.053,20.053,0,0,1-6.9-2.835,13.354,13.354,0,0,1-4.481-5.167,17.788,17.788,0,0,1-1.54-7.85,14.953,14.953,0,0,1,1.784-7.56,13.324,13.324,0,0,1,4.771-4.923,20.929,20.929,0,0,1,6.859-2.683,38.728,38.728,0,0,1,8.048-.839c1.89,0,3.536.107,4.969.244a18.3,18.3,0,0,1,3.536.641V101.57a8.013,8.013,0,0,0-2.241-5.914c-1.493-1.494-4.069-2.241-7.758-2.241a50.049,50.049,0,0,0-7.255.549,30.278,30.278,0,0,0-6.219,1.494l-1.845-11.63c.839-.244,1.89-.549,3.125-.838s2.637-.549,4.131-.793,3.033-.4,4.679-.595C532.052,81.538,533.744,81.432,535.436,81.432Zm1.143,42.206c1.448,0,2.789-.045,4.07-.106a19.747,19.747,0,0,0,3.079-.3V112.283a26.094,26.094,0,0,0-2.637-.4,24.424,24.424,0,0,0-3.186-.2,33.521,33.521,0,0,0-3.826.244,8.45,8.45,0,0,0-3.124.945,5.327,5.327,0,0,0-2.134,1.845,5.239,5.239,0,0,0-.793,2.88c0,2.241.747,3.826,2.286,4.68A11.8,11.8,0,0,0,536.579,123.638Z"/><path class="cls-4" d="M579.975,123.4a13.815,13.815,0,0,0,5.624-.793,2.993,2.993,0,0,0,1.646-2.988,3.614,3.614,0,0,0-2.134-3.033,37.816,37.816,0,0,0-6.508-2.926,57.612,57.612,0,0,1-6.158-2.637,17.318,17.318,0,0,1-4.68-3.232,12.948,12.948,0,0,1-2.987-4.527,16.822,16.822,0,0,1-1.037-6.31,13.694,13.694,0,0,1,5.32-11.341q5.3-4.184,14.618-4.176a48.147,48.147,0,0,1,8.9.838,41.2,41.2,0,0,1,6.768,1.783l-2.53,11.234a46.966,46.966,0,0,0-5.472-1.539,30.284,30.284,0,0,0-6.616-.7c-4.527,0-6.767,1.249-6.767,3.78a3.7,3.7,0,0,0,.3,1.539,3.431,3.431,0,0,0,1.144,1.3A15.4,15.4,0,0,0,581.8,101a33.675,33.675,0,0,0,3.826,1.585,60.781,60.781,0,0,1,7.85,3.476,19.391,19.391,0,0,1,4.877,3.673,11.794,11.794,0,0,1,2.53,4.375,18.734,18.734,0,0,1,.747,5.624c0,5.015-1.89,8.856-5.67,11.387-3.78,2.591-9.1,3.871-16,3.871a47.317,47.317,0,0,1-11.279-1.143,57.334,57.334,0,0,1-6.265-1.936l2.439-11.737a49.131,49.131,0,0,0,7.56,2.287A31.17,31.17,0,0,0,579.975,123.4Z"/><path class="cls-4" d="M606.985,133.744V60.9L621.4,58.568V82.987a33.79,33.79,0,0,1,3.734-.946,22.632,22.632,0,0,1,4.421-.442,26.807,26.807,0,0,1,10.289,1.692,16.357,16.357,0,0,1,6.569,4.771,18.81,18.81,0,0,1,3.475,7.362,39.835,39.835,0,0,1,.991,9.5v28.793H636.464V106.643c0-4.679-.6-7.957-1.784-9.892s-3.429-2.881-6.615-2.881a17.271,17.271,0,0,0-3.628.35,27.728,27.728,0,0,0-3.033.747V133.7H606.985Z"/><path class="cls-4" d="M125.791,134.939a46.627,46.627,0,0,0,0-76.367h35.043v76.367Z"/><path class="cls-4" d="M52.431,96.749A46.547,46.547,0,0,0,72.3,134.927H37.217V58.572H72.3A46.547,46.547,0,0,0,52.431,96.749Z"/><path class="cls-4" d="M103.168,90.935l.024-.034.013-.015.017-.022.007-.012.017-.023.007-.011.017-.023.007-.012.017-.022.007-.012.014-.02.006-.012.015-.021.006-.012.015-.02.007-.012.014-.021.007-.011.014-.021.006-.012.015-.02.006-.012.015-.021.007-.012.015-.02.006-.012.011-.019.007-.012.011-.019.006-.011.011-.019.007-.012.011-.019v-.01l.011-.019v-.01l.011-.018v-.01l.011-.019v-.01l.011-.019v-.01l.011-.019v-.01l.008-.017V90.2l.011-.018.014-.029.027-.061a3.514,3.514,0,0,0,.23-2.155v-.009a.31.31,0,0,1-.015-.06h0l-.01-.019a.491.491,0,0,0-.017-.093c-.007-.03-.016-.054-.024-.085l-.011-.02h0l-.019-.058v-.01a3.506,3.506,0,0,0-1.241-1.778c-.019-.011-.036-.027-.055-.038l-.025-.015-.019-.011h-.007l-.015-.013h-.007L102.4,85.7h-.007l-.019-.011h-.006l-.019-.011h-.007l-.019-.011-.008-.008-.019-.011-.012-.006-.019-.011-.012-.007-.019-.011-.011-.006L102.2,85.6l-.012-.007-.019-.011-.012-.006-.02-.015-.012-.006-.021-.014-.012-.007-.02-.014-.012-.007-.024-.012-.012-.007L102,85.478l0-.024-.024-.012-.012-.006-.024-.013-.012-.007L101.9,85.4l-.012-.006-.024-.013-.011-.006-.024-.013-.012-.006-.024-.013-.012-.006-.024-.013-.017-.008-.04-.016a6.114,6.114,0,0,0-4.136-.321c-.945.246-3.809.965-4.5,1.143L95.2,94.381c.693-.179,3.549-.928,4.5-1.17A6.1,6.1,0,0,0,103.168,90.935Z"/><path class="cls-4" d="M108.965,100.194h0a.29.29,0,0,0-.014-.065h0l-.011-.02h0c0-.046,0-.082-.012-.085-.009-.034-.017-.063-.024-.093l-.011-.02h0l-.02-.06-.007-.014a3.617,3.617,0,0,0-1.419-1.9c-.021-.014-.045-.026-.065-.041l-.027-.019-.021-.016-.012-.006-.018-.011-.012-.006-.021-.015-.012-.006-.02-.015-.012-.006-.02-.015-.012-.007-.021-.014-.012-.006-.02-.015-.012-.006-.03-.033-.012-.006-.024-.013-.012-.006-.023-.013-.012-.006-.024-.013-.012-.006-.024-.013-.012-.006-.024-.013-.012-.006-.023-.013-.012-.006-.024-.013-.012-.006-.024-.012-.012-.007-.029-.014-.012-.006-.028-.014-.012-.007-.029-.014-.012-.006-.029-.014-.015,0-.029-.014h-.015l-.029-.014h-.015l-.032-.013-.022-.009-.044-.019a7.705,7.705,0,0,0-4.869-.249c-1.121.289-4.515,1.142-5.337,1.355l2.3,8.968c.824-.21,4.209-1.095,5.329-1.385a7.687,7.687,0,0,0,4.146-2.567l.031-.037.016-.017.019-.028.01-.013.019-.028.009-.013.02-.028.009-.013.02-.027.009-.014.02-.027.009-.014.016-.026.01-.013.015-.026.006-.012.016-.025.007-.012.015-.026.006-.011.018-.023.006-.012.018-.022.006-.012.015-.02.006-.012.015-.021.007-.012.014-.02.006-.012.015-.021.006-.011.014-.021.007-.012.014-.02.007-.012.015-.021.006-.011.016-.021.006-.012.014-.02.007-.012.011-.019.006-.012.011-.019.007-.012.012-.023.018-.031.036-.066a3.61,3.61,0,0,0,.327-2.355Z"/><path class="cls-4" d="M99.026,58.579a38.152,38.152,0,1,0,38.151,38.153v0A38.151,38.151,0,0,0,99.026,58.579Zm17.628,44.871h0c-.016.042-.036.083-.055.127l-.025.056-.019.044-.008.017-.017.039-.011.018-.017.039-.011.019-.021.041-.011.019-.02.04-.011.019-.021.041-.011.019-.02.04-.011.019-.021.041-.011.019-.02.04-.01.023-.024.042-.009.022-.024.042-.012.024-.024.043-.013.024-.024.042-.012.024-.027.044-.013.024-.027.044-.013.024-.025.048-.012.023-.026.048-.012.024-.029.049-.012.024-.029.049-.013.024-.028.049-.015.026-.029.049-.016.026-.032.051-.015.025-.032.051-.024.034h0l-.05.073a11.787,11.787,0,0,1-6.9,4.726l-1.689.438,1.754,6.826-4.058,1.044-1.749-6.8-3.248.833,1.748,6.8-4.06,1.044-1.769-6.783-8.364,2.149-.174-5.15,2.957-.761a1.4,1.4,0,0,0,1-1.7L86.45,89.7h0a2.089,2.089,0,0,0-2.543-1.5l-3.374.867-1.114-4.33,8.374-2.155-1.747-6.8,4.06-1.041,1.748,6.774,3.248-.832-1.746-6.8,4.06-1.041,1.753,6.823.692-.178a10.463,10.463,0,0,1,7.394.725l.071.038h0l.034.015.048.025.023.013.048.025.024.013.044.027.024.012.044.027.02.015.042.023.021.014.042.024.021.015.042.023.019.011.042.024.019.011.039.026.019.011.039.025.019.011.038.023.018.011.038.022.02.012.038.022.018.012.038.022.019.011.034.024.018.011.034.024.019.011.034.024.015.013.035.024.015.013.034.024.015.013.031.019.015.013.029.023.015.013.029.022.015.013.035.024.042.032c.031.027.066.051.1.076h0a6.923,6.923,0,0,1,2.267,3.392h0l.034.109V84.7l.02.036c.015.051.032.106.043.159s.028.108.04.161l.016.029h0v.008c.011.037.019.075.027.113h0v.007h0a6.917,6.917,0,0,1-.352,4.064h0c-.018.039-.031.076-.048.115l-.024.051-.017.039-.008.017-.015.034-.008.017-.015.033-.008.017-.015.034-.008.017-.019.036-.008.017-.019.035-.008.017-.019.036-.008.017-.019.035-.011.019-.019.036-.011.018-.022.038-.011.019-.022.037-.011.019-.021.041-.011.018-.02.041-.012.019-.02.04-.011.019-.024.043-.011.018-.024.043-.011.018-.024.043-.014.02-.024.043-.014.02-.027.044-.016.021-.027.044-.014.021-.027.044-.014.02-.028.045-.014.02-.027.044-.021.033h0l-.045.066a9.75,9.75,0,0,1-.933,1.172,10.893,10.893,0,0,1,3.483,1.1c.026.016.053.027.079.043h0l.036.019.052.027.026.016.052.027.026.015.049.028.026.016.049.028.024.013.049.028.024.013.049.028.024.013.048.025.023.013.045.027.024.013.044.027.02.014.045.027.02.014.044.027.021.015.044.027.021.014.041.029.02.015.039.025.021.014.039.026.021.014.039.026.02.014.023.035.019.011.039.025.054.08.036.027.019.011.036.027.015.013.034.024.015.013.034.024.015.013.036.027.05.037c.036.028.073.058.109.085h0a7.8,7.8,0,0,1,2.548,3.812v.007h0c.015.043.025.085.037.124v.007l.021.039c0,.07.012.133.011.169.018.057.03.119.046.179l.007.013h0v.009c.01.041.019.083.029.124h0A7.807,7.807,0,0,1,116.654,103.45Z"/></svg>