<svg id="Layer_1" data-name="Layer 1" xmlns="http://www.w3.org/2000/svg" viewBox="0 0 4016.382 502.6"><defs><style>.cls-1{fill:#4d4d4d;}.cls-2{fill:#f7941d;}.cls-3{fill:#fff;}</style></defs><title>6-bitcoin-cash-logo-horizontal</title><path class="cls-1" d="M1027.781,498.7c-24.1,0-48.3-.7-72.1-2.3a528.947,528.947,0,0,1-74.7-10.4V59c20.2-3.9,42.7-6.5,66.9-8.5,24.1-2,46.6-2.9,67.5-2.9,28.1,0,53.8,2,77.3,6.2,23.5,3.9,43.7,10.8,60.7,20.5,17,9.8,30.3,22.5,39.8,38.5s14.4,35.6,14.4,58.7q0,52.8-50.9,83.2c28.1,10.4,47,25.1,57.1,43.1,10.1,18.3,15.3,38.8,15.3,61.6,0,46.3-17,80.9-50.6,104.1C1144.281,487.3,1094.381,498.7,1027.781,498.7Zm-50.2-273h48.3c30.7,0,52.2-3.9,65.6-11.7,13-7.8,19.6-20.5,19.6-37.8,0-17.9-6.8-30.3-20.2-37.5q-20.55-10.8-59.7-10.8c-8.5,0-17.6,0-27.4.3s-18.3.7-26.1,1.6C977.581,129.8,977.581,225.7,977.581,225.7Zm0,75.7V415.2c7.2,1,15,1.6,23.5,2s17.9.7,28.1.7c29.7,0,53.5-4.2,71.8-12.7s27.4-24.1,27.4-47c0-20.2-7.5-34.9-22.8-43.4-15.3-8.8-37.2-13-65.6-13h-62.3v-.4Z"/><path class="cls-1" d="M1370.281,62.3c0,17.3-5.5,31-17,41.1-11.1,10.1-24.5,15-39.8,15a57.728,57.728,0,0,1-39.8-15c-11.1-10.1-17-23.5-17-41.1,0-17.3,5.5-31,17-41.1a58.606,58.606,0,0,1,39.8-15,57.728,57.728,0,0,1,39.8,15C1364.681,31.3,1370.281,45,1370.281,62.3Zm-9.1,430.9h-94.6V158.8h94.6Z"/><path class="cls-1" d="M1412.081,75.6l94.6-15.3v98.5h113.8v78.9h-113.8V355.1c0,19.9,3.6,35.9,10.4,47.6s21.2,17.9,42.4,17.9a180.511,180.511,0,0,0,31.3-2.9,200.683,200.683,0,0,0,29.7-7.8l13.4,73.7a260.446,260.446,0,0,1-38.2,12.1c-14,3.3-31,5.2-51.5,5.2-25.8,0-47.3-3.6-64.3-10.4s-30.7-16.6-40.8-29.4c-10.1-12.4-17.3-27.7-21.2-45.3a276.075,276.075,0,0,1-6.2-59V75.6Z"/><path class="cls-1" d="M1633.881,326.1a196.642,196.642,0,0,1,11.7-68.2,161.137,161.137,0,0,1,33.9-55.8c14.7-16,32.9-28.4,54.1-37.8,21.2-9.5,45.3-14,72.4-14,17.9,0,34.2,1.6,48.9,4.9a245.692,245.692,0,0,1,43.1,13.7l-19.6,75.7a252.128,252.128,0,0,0-29.4-8.8,148.687,148.687,0,0,0-35.6-3.9c-28.1,0-48.9,8.8-62.6,26.1s-20.5,40.1-20.5,68.5c0,30,6.5,53.5,19.2,69.8,13,16.6,35.6,24.8,67.5,24.8a213.929,213.929,0,0,0,36.9-3.3,156.646,156.646,0,0,0,36.2-10.1l13.4,77.6a221.116,221.116,0,0,1-41.4,12.1,281.014,281.014,0,0,1-54.8,5.2c-30.7,0-56.8-4.6-78.9-13.7-22.2-9.1-40.1-21.5-54.5-37.2s-24.5-34.2-31-55.5A278.626,278.626,0,0,1,1633.881,326.1Z"/><path class="cls-1" d="M2229.481,325.5c0,26.4-3.9,50.2-11.4,72.1s-18.6,40.4-32.9,55.8a150.008,150.008,0,0,1-51.9,35.9c-20.3,8.5-42.7,12.7-67.5,12.7-24.5,0-47-4.2-67.2-12.7a149.589,149.589,0,0,1-51.9-35.9c-14.4-15.3-25.8-34.2-33.6-55.8-8.2-21.9-12.1-46-12.1-72.1,0-26.4,4.2-50.2,12.4-71.8,8.2-21.5,19.6-40.1,34.2-55.1a154.287,154.287,0,0,1,52.2-35.6c20.2-8.5,42.1-12.7,65.9-12.7q36.15,0,66.5,12.7c20.2,8.5,37.5,20.2,51.9,35.6a159.159,159.159,0,0,1,33.6,55.1C2225.281,275.3,2229.481,299.1,2229.481,325.5Zm-96.5,0c0-29.4-5.9-52.2-17.6-68.8s-28.4-25.1-49.9-25.1-38.5,8.5-50.2,25.1-17.9,39.8-17.9,68.8c0,29.4,5.9,52.5,17.9,69.5,11.7,17.3,28.7,25.8,50.2,25.8s38.2-8.5,49.9-25.8S2132.981,354.5,2132.981,325.5Z"/><path class="cls-1" d="M2371.081,62.3c0,17.3-5.5,31-17,41.1-11.1,10.1-24.5,15-39.8,15a57.728,57.728,0,0,1-39.8-15c-11.1-10.1-17-23.5-17-41.1,0-17.3,5.5-31,17-41.1a58.606,58.606,0,0,1,39.8-15,57.728,57.728,0,0,1,39.8,15C2365.481,31.3,2371.081,45,2371.081,62.3Zm-8.8,430.9h-94.6V158.8h94.6Z"/><path class="cls-1" d="M2416.081,170.2c16-4.6,36.9-9.1,62.3-13a527.064,527.064,0,0,1,79.9-6.2c28.4,0,51.9,3.6,70.8,11.1s33.9,17.9,44.7,31.3c11.1,13.7,18.9,29.7,23.5,48.3s6.8,39.5,6.8,62.3V492.9h-94.6V315.4c0-30.7-3.9-52.2-12.1-64.9s-23.2-18.9-45-18.9c-6.8,0-14,.3-21.5,1s-14.4,1.3-20.2,2.3v258h-94.6V170.2Z"/><path class="cls-2" d="M2962.781,502c-71.8,0-126.2-19.9-163.7-59.7s-56.1-96.2-56.1-169.6c0-36.5,5.9-68.8,17.3-97.5s27.1-52.8,47-72.4a197.6,197.6,0,0,1,71.1-44.7c27.4-10.1,57.4-15.3,89.7-15.3,18.6,0,35.6,1.3,50.9,4.2a301.459,301.459,0,0,1,40.1,9.5,199.016,199.016,0,0,1,28.7,11.1c7.5,3.9,13,6.8,16.6,8.8l-28.7,79.9a234.427,234.427,0,0,0-47.3-18.3c-17.9-5.2-38.5-7.5-61.3-7.5a138.4,138.4,0,0,0-44.7,7.5,105.238,105.238,0,0,0-38.8,24.5c-11.1,11.1-20.2,25.8-27.1,43.4-6.8,17.9-10.1,39.5-10.1,64.9a245.114,245.114,0,0,0,6.5,56.8c4.6,17.6,11.7,32.6,21.5,45.3a104.555,104.555,0,0,0,39.1,30.3c16,7.5,35.6,11.1,58.4,11.1a279.974,279.974,0,0,0,38.8-2.6,230.72,230.72,0,0,0,30.7-6.2,174.773,174.773,0,0,0,23.5-7.8c6.8-2.9,13-5.9,18.3-8.2l27.4,79.6c-14,8.5-33.6,16-59,22.8C3025.681,498.7,2996.081,502,2962.781,502Z"/><path class="cls-2" d="M3258.981,150c28.1,0,51.2,3.3,69.8,9.5s33.6,15.3,44.7,27.4a101.154,101.154,0,0,1,23.8,43.1c4.6,17,6.8,35.9,6.8,56.4v197c-13.7,2.9-32.3,6.5-56.4,10.4s-53.5,6.2-87.7,6.2q-32.25,0-58.7-5.9c-17.6-3.9-32.6-10.1-45.3-18.6a87.635,87.635,0,0,1-29.4-33.9c-6.8-14-10.1-31-10.1-51.5,0-19.6,3.9-35.9,11.7-49.6a87.471,87.471,0,0,1,31.3-32.3c13-8.2,28.1-14,45-17.6a254.2,254.2,0,0,1,52.8-5.5c12.4,0,23.2.7,32.6,1.6,9.5,1,17.3,2.3,23.2,4.2v-8.8c0-16-4.9-29-14.7-38.8s-26.7-14.7-50.9-14.7a327.324,327.324,0,0,0-47.6,3.6c-15.7,2.3-29.4,5.5-40.8,9.8l-12.1-76.3c5.5-1.6,12.4-3.6,20.5-5.5,8.2-2,17.3-3.6,27.1-5.2s19.9-2.6,30.7-3.9C3236.781,150.7,3247.881,150,3258.981,150Zm7.5,276.9c9.5,0,18.3-.3,26.7-.7a128.647,128.647,0,0,0,20.2-2V352.4c-3.9-1-9.5-1.6-17.3-2.6a159.128,159.128,0,0,0-20.9-1.3,219.241,219.241,0,0,0-25.1,1.6c-7.8,1-14.7,2.9-20.5,6.2a35,35,0,0,0-14,12.1,34.4,34.4,0,0,0-5.2,18.9c0,14.7,4.9,25.1,15,30.7C3235.481,424.3,3249.181,426.9,3266.481,426.9Z"/><path class="cls-2" d="M3551.181,425.3c17.3,0,29.7-1.6,36.9-5.2,7.2-3.3,10.8-10.1,10.8-19.6,0-7.5-4.6-14.4-14-19.9-9.5-5.9-23.5-12.1-42.7-19.2-14.7-5.5-28.4-11.1-40.4-17.3-12.1-5.9-22.5-13-30.7-21.2a85.051,85.051,0,0,1-19.6-29.7c-4.6-11.4-6.8-25.1-6.8-41.4,0-31.3,11.7-56.1,34.9-74.4s55.1-27.4,95.9-27.4a316.16,316.16,0,0,1,58.4,5.5c18.6,3.6,33.6,7.5,44.4,11.7l-16.6,73.7a308.134,308.134,0,0,0-35.9-10.1,198.588,198.588,0,0,0-43.4-4.6c-29.7,0-44.4,8.2-44.4,24.8a24.256,24.256,0,0,0,2,10.1,22.475,22.475,0,0,0,7.5,8.5,101.108,101.108,0,0,0,15.7,8.8,221.7,221.7,0,0,0,25.1,10.4c20.9,7.8,37.8,15.3,51.5,22.8s24.1,15.7,32,24.1a77.473,77.473,0,0,1,16.6,28.7c3.3,10.4,4.9,22.8,4.9,36.9,0,32.9-12.4,58.1-37.2,74.7-24.8,17-59.7,25.4-105,25.4-29.7,0-54.5-2.6-74-7.5-19.6-5.2-33.3-9.5-41.1-12.7l16-77a322.693,322.693,0,0,0,49.6,15A204.111,204.111,0,0,0,3551.181,425.3Z"/><path class="cls-2" d="M3728.381,493.2V15.3l94.6-15.3V160.2a219.9,219.9,0,0,1,24.5-6.2,147.717,147.717,0,0,1,29-2.9c27.1,0,49.6,3.6,67.5,11.1s32.3,17.9,43.1,31.3c10.8,13.7,18.3,29.7,22.8,48.3,4.6,18.6,6.5,39.5,6.5,62.3V493h-94.6V315.4c0-30.7-3.9-52.2-11.7-64.9s-22.5-18.9-43.4-18.9a113.088,113.088,0,0,0-23.8,2.3c-7.5,1.6-14,2.9-19.9,4.9V492.9h-94.6Z"/><path class="cls-2" d="M574.212,501.04a302.282,302.282,0,0,0,0-495.073H801.381V501.04Z"/><path class="cls-2" d="M98.632,253.462a301.739,301.739,0,0,0,128.787,247.5H0V5.967H227.418A301.74,301.74,0,0,0,98.632,253.462Z"/><circle class="cls-2" cx="400.691" cy="253.341" r="247.327"/><path class="cls-3" d="M516.694,263.615l-.138-.255-.023-.043c-.084-.258-.146-.526-.241-.805l-.011-.021-.012-.022-.011-.022-.011-.022-.012-.021-.012-.022-.023-.042a50.525,50.525,0,0,0-16.519-24.717l-.012-.022c-.233-.177-.477-.375-.709-.553l-.321-.239-.233-.177-.1-.084-.221-.155-.1-.084-.221-.156-.1-.084-.232-.177-.122-.072-.233-.177-.122-.072-.254-.165-.122-.072-.148-.223-.133-.093-.254-.166-.133-.093-.255-.166-.132-.093-.255-.165-.132-.094-.266-.187-.133-.094-.287-.175-.132-.093-.288-.175-.132-.094-.287-.175-.133-.093-.287-.176-.155-.081-.287-.175-.154-.082-.308-.164-.155-.082-.319-.185-.155-.081-.32-.185-.154-.082-.32-.185-.165-.1-.32-.185-.165-.1-.341-.174-.165-.1-.34-.174-.231-.123-.012-.021c-.165-.1-.34-.174-.507-.278a70.528,70.528,0,0,0-22.583-7.136,63.159,63.159,0,0,0,6.051-7.6l.29-.431.022-.012.135-.21.175-.287.094-.132.175-.288.093-.132.175-.287.094-.133.175-.287.094-.133.175-.287.093-.133.155-.275.093-.133.155-.275.071-.121.155-.275.072-.121.154-.275.072-.122.133-.264.071-.121.133-.264.072-.121.133-.264.071-.122.145-.242.072-.122.144-.243.072-.12.123-.231.072-.122.123-.23.051-.11.123-.231.051-.11.123-.23.051-.11.123-.231.051-.11.1-.219.051-.11.1-.22.051-.11.1-.219.051-.11.112-.253.152-.329c.112-.252.2-.494.313-.746l.022-.012a44.869,44.869,0,0,0,2.28-26.345l-.012-.022-.023-.043-.012-.021-.012-.022-.012-.022-.012-.022-.012-.021-.012-.022c-.051-.248-.1-.5-.174-.731l0-.054-.012-.022-.012-.022-.012-.022.012.022-.1-.191c-.075-.344-.151-.689-.259-1.042-.075-.344-.184-.7-.281-1.031l-.126-.234-.023-.043c-.071-.236-.144-.472-.216-.708l-.012-.021-.012-.022-.012-.022-.012-.022-.012-.021-.012-.022-.012-.022a44.873,44.873,0,0,0-14.694-21.989l-.012-.022c-.2-.167-.421-.323-.621-.49l-.277-.208-.221-.156-.1-.083-.188-.146-.1-.084-.188-.146-.1-.083-.193-.127-.1-.084-.221-.156-.1-.083-.221-.156-.1-.084-.221-.155-.122-.072-.221-.155-.12-.072-.221-.156-.122-.072-.243-.144-.121-.072-.243-.145-.122-.071-.242-.145-.122-.072-.243-.145-.121-.071-.255-.166-.122-.071-.254-.166-.122-.072-.275-.154-.122-.072-.275-.154-.133-.094-.275-.154-.133-.094-.275-.154-.133-.094-.287-.175-.154-.081-.287-.175-.155-.082-.308-.164-.154-.082-.308-.164-.22-.1-.012-.022-.462-.246c-13.506-7.02-30.665-9.133-47.93-4.7l-4.491,1.153-11.36-44.23-26.321,6.748,11.321,44.059-21.057,5.4L342.871,110.76l-26.322,6.749,11.322,44.058-54.286,13.969,7.223,28.072,21.874-5.617a13.537,13.537,0,0,1,16.491,9.755h0L349.53,325.868a9.044,9.044,0,0,1-6.5,11l-19.165,4.93,1.126,33.388,54.221-13.934,11.471,43.978,26.31-6.77L405.66,354.382l21.056-5.4,11.334,44.079,26.31-6.769-11.37-44.251c4.458-1.163,8.293-2.156,10.946-2.842,19.456-5,35.189-16.414,44.71-30.634l.321-.475.022-.012.155-.221.207-.331.1-.165.207-.331.1-.165.185-.32.1-.165.185-.32.082-.154.185-.32.081-.155.185-.319.082-.155.164-.308.082-.154.164-.308.081-.154.176-.288.081-.154.175-.287.082-.155.154-.275.082-.154.154-.275.082-.155.154-.275.061-.142.155-.276.061-.142.132-.264.072-.122.133-.265.072-.121.132-.265.072-.122.133-.264.072-.121.132-.264.072-.122.133-.264.072-.122.111-.252.071-.122.111-.252.051-.11.122-.285.162-.362c.122-.285.255-.55.355-.823l.009-.032a50.582,50.582,0,0,0,2.572-29.634l-.012-.022-.012-.022-.011-.022-.012-.021-.012-.022-.012-.022-.011-.022-.012-.021q-.093-.4-.187-.806v-.055l-.012-.021-.012-.022-.011-.022-.012-.022-.012-.021-.012-.022-.01-.022-.012-.022-.012-.021-.012-.022-.011-.022-.012-.022-.012-.021-.046-.085c-.1-.387-.175-.785-.294-1.161C516.773,264.479,516.718,264.069,516.694,263.615ZM362.035,184.59c4.491-1.153,23.058-5.817,29.182-7.408,9.733-2.492,19.323-1.525,26.815,2.081l.252.112h0l.11.052.154.081.077.041.155.082.077.041.155.082.077.041.154.082.078.041.154.082.077.041.155.082.077.041.154.082.078.041.154.081.077.042.155.081.077.042.133.093.077.042.133.093.077.041.133.094.077.041.122.072.077.041.122.072.077.041.122.072.077.042.122.071.077.042.122.071.055.053.122.071.045.032.12.072.045.031.122.072.044.032.122.071.045.032.1.084.044.031.122.072.166.1c.121.072.232.178.353.249h0a22.7,22.7,0,0,1,8.045,11.526h0l.035.064c.036.118.084.258.12.376l.012.021.068.129c.049.193.108.354.158.547a3.185,3.185,0,0,1,.1.6l.069.129.012.022a1.863,1.863,0,0,0,.1.387l.035.064h0a22.782,22.782,0,0,1-1.5,13.968h0l-.172.394-.091.187-.072.121-.019.065-.052.11-.019.066-.072.12-.02.066-.071.121-.02.066-.072.121-.019.066-.072.12-.02.066-.071.12-.02.066-.072.12-.041.078-.072.121-.041.078-.072.121-.041.078-.072.122-.042.077-.093.132-.041.078-.094.132-.041.078-.094.132-.041.078-.094.132-.041.078-.094.132-.041.078-.093.132-.042.077-.093.133-.042.077-.093.133-.041.077-.115.145-.041.077-.114.145-.042.077-.114.145-.041.077-.114.145-.084.1h0l-.156.221c-4.841,6.782-12.773,12.262-22.507,14.752-6.135,1.571-24.653,6.427-29.144,7.581Zm102.888,90.569.068.128.012.022c.026.151.062.268.088.419h0l.012.022h0l.012.022.012.022.012.021h0a23.4,23.4,0,0,1-2.117,15.265h0l-.236.429-.113.2-.081.155-.042.077-.072.122-.041.077-.072.122-.041.077-.094.133-.041.077-.093.133-.042.077-.093.132-.042.078-.093.132-.041.078-.094.132-.041.078-.094.132-.041.078-.094.132-.041.077-.094.133-.041.077-.093.133-.042.077-.114.145-.041.077-.115.145-.041.077-.1.165-.042.078-.1.165-.041.077-.1.166-.062.088-.1.165-.062.088-.125.177-.062.089-.125.177-.062.088-.125.177-.062.088-.125.178-.062.088-.125.177-.1.111h0l-.2.243c-5.879,7.507-15.362,13.683-26.878,16.639-7.262,1.875-29.207,7.615-34.547,8.978l-14.94-58.132c5.329-1.384,27.335-6.909,34.6-8.784,11.518-2.956,22.824-2.117,31.565,1.614l.285.122h0l.143.061.207.081.1.029.187.091.1.03.187.091.1.029.187.092.077.041.188.092.077.041.187.091.077.042.187.091.077.041.155.082.077.041.155.082.077.041.154.082.077.041.155.082.077.041.155.081.077.042.154.081.078.042.154.081.077.042.155.081.077.042.154.081.078.041.132.094.077.041.133.094.077.041.133.094.077.041.133.094.077.041.133.093.077.042.121.072.077.041.133.093.177.125c.133.094.287.176.42.269h0a23.457,23.457,0,0,1,9.207,12.357h0l.046.085c.048.139.083.258.13.4l.012.022.069.128c.049.193.1.387.158.6.094.022.112.259.078.553Z"/></svg>