<svg id="Layer_1" data-name="Layer 1" xmlns="http://www.w3.org/2000/svg" xmlns:xlink="http://www.w3.org/1999/xlink" viewBox="0 0 688.1 254.6"><defs><style>.cls-1{fill:none;}.cls-2{fill:#f7941d;}.cls-3{clip-path:url(#clip-path);}.cls-4{fill:#fff;}</style><clipPath id="clip-path"><path class="cls-1" d="M629.6,254.6H58.5A58.64,58.64,0,0,1,0,196.1V58.5A58.7,58.7,0,0,1,58.5,0H629.6a58.64,58.64,0,0,1,58.5,58.5V196.1A58.64,58.64,0,0,1,629.6,254.6Z"/></clipPath></defs><title>8-bitcoin-cash-accepted-here-orange</title><path id="SVGID" class="cls-2" d="M629.6,254.6H58.5A58.64,58.64,0,0,1,0,196.1V58.5A58.7,58.7,0,0,1,58.5,0H629.6a58.64,58.64,0,0,1,58.5,58.5V196.1A58.64,58.64,0,0,1,629.6,254.6Z"/><g class="cls-3"><rect class="cls-2" width="688" height="6.5"/></g><g class="cls-3"><rect class="cls-2" y="6.5" width="688" height="6.5"/></g><g class="cls-3"><rect class="cls-2" y="13.1" width="688" height="6.5"/></g><g class="cls-3"><rect class="cls-2" y="19.6" width="688" height="6.5"/></g><g class="cls-3"><rect class="cls-2" y="26.1" width="688" height="6.5"/></g><g class="cls-3"><rect class="cls-2" y="32.7" width="688" height="6.5"/></g><g class="cls-3"><rect class="cls-2" y="39.2" width="688" height="6.5"/></g><g class="cls-3"><rect class="cls-2" y="45.7" width="688" height="6.5"/></g><g class="cls-3"><rect class="cls-2" y="52.2" width="688" height="6.5"/></g><g class="cls-3"><rect class="cls-2" y="58.8" width="688" height="6.5"/></g><g class="cls-3"><rect class="cls-2" y="65.3" width="688" height="6.5"/></g><g class="cls-3"><rect class="cls-2" y="71.8" width="688" height="6.5"/></g><g class="cls-3"><rect class="cls-2" y="78.3" width="688" height="6.5"/></g><g class="cls-3"><rect class="cls-2" y="84.9" width="688" height="6.5"/></g><g class="cls-3"><rect class="cls-2" y="91.4" width="688" height="6.5"/></g><g class="cls-3"><rect class="cls-2" y="97.9" width="688" height="6.5"/></g><g class="cls-3"><rect class="cls-2" y="104.5" width="688" height="6.5"/></g><g class="cls-3"><rect class="cls-2" y="111" width="688" height="6.5"/></g><g class="cls-3"><rect class="cls-2" y="117.5" width="688" height="6.5"/></g><g class="cls-3"><rect class="cls-2" y="124" width="688" height="6.5"/></g><g class="cls-3"><rect class="cls-2" y="130.6" width="688" height="6.5"/></g><g class="cls-3"><rect class="cls-2" y="137.1" width="688" height="6.5"/></g><g class="cls-3"><rect class="cls-2" y="143.6" width="688" height="6.5"/></g><g class="cls-3"><rect class="cls-2" y="150.1" width="688" height="6.5"/></g><g class="cls-3"><rect class="cls-2" y="156.7" width="688" height="6.5"/></g><g class="cls-3"><rect class="cls-2" y="163.2" width="688" height="6.5"/></g><g class="cls-3"><rect class="cls-2" y="169.7" width="688" height="6.5"/></g><g class="cls-3"><rect class="cls-2" y="176.3" width="688" height="6.5"/></g><g class="cls-3"><rect class="cls-2" y="182.8" width="688" height="6.5"/></g><g class="cls-3"><rect class="cls-2" y="189.3" width="688" height="6.5"/></g><g class="cls-3"><rect class="cls-2" y="195.8" width="688" height="6.5"/></g><g class="cls-3"><rect class="cls-2" y="202.4" width="688" height="6.5"/></g><g class="cls-3"><rect class="cls-2" y="208.9" width="688" height="6.5"/></g><g class="cls-3"><rect class="cls-2" y="215.4" width="688" height="6.5"/></g><g class="cls-3"><rect class="cls-2" y="221.9" width="688" height="6.5"/></g><g class="cls-3"><rect class="cls-2" y="228.5" width="688" height="6.5"/></g><g class="cls-3"><rect class="cls-2" y="235" width="688" height="6.5"/></g><g class="cls-3"><rect class="cls-2" y="241.5" width="688" height="6.5"/></g><g class="cls-3"><rect class="cls-2" y="248.1" width="688" height="6.5"/></g><path class="cls-4" d="M281.4,195.2c-.1-1.2-.1-2.4-.2-3.6s-.2-2.3-.3-3.5H268.8c-.6,1.1-1.3,2.3-2,3.5s-1.3,2.3-2,3.6h-7.5c2-3.5,3.9-6.7,5.6-9.6,1.8-2.9,3.4-5.7,5.1-8.3s3.2-5.1,4.8-7.4,3.1-4.6,4.7-6.9H284c.5,2.2,1,4.7,1.4,7.4s.9,5.5,1.3,8.3.7,5.7,1.1,8.5c.3,2.8.6,5.5.9,8ZM279.2,170c-1.3,2.1-2.6,4.1-3.8,6.2a64.362,64.362,0,0,0-3.6,6.3h8.7c-.2-1.9-.3-3.9-.5-6C279.8,174.3,279.5,172.2,279.2,170Z"/><path class="cls-4" d="M315.6,193.8a25.975,25.975,0,0,1-4.2,1.5,23.164,23.164,0,0,1-5.7.6,13.175,13.175,0,0,1-5.3-1,10.5,10.5,0,0,1-4.1-2.7,12.38,12.38,0,0,1-2.6-4.3,17.043,17.043,0,0,1-.9-5.7,20.307,20.307,0,0,1,1.3-7.2,19.756,19.756,0,0,1,3.8-6.4A20.027,20.027,0,0,1,304,164a18.422,18.422,0,0,1,8.3-1.8,21.184,21.184,0,0,1,4.4.5,15.121,15.121,0,0,1,4.5,1.8l-2.6,5.6a18.138,18.138,0,0,0-3.5-1.4,16.562,16.562,0,0,0-3.3-.4,10.607,10.607,0,0,0-4.8,1.1,11.245,11.245,0,0,0-3.6,2.9,11.829,11.829,0,0,0-2.3,4.3,17.015,17.015,0,0,0-.8,5.1q0,4.05,1.8,6a6.945,6.945,0,0,0,5.1,1.9,17.045,17.045,0,0,0,4.1-.5,18,18,0,0,0,3.5-1.2Z"/><path class="cls-4" d="M343.7,193.8a25.975,25.975,0,0,1-4.2,1.5,23.164,23.164,0,0,1-5.7.6,13.175,13.175,0,0,1-5.3-1,10.5,10.5,0,0,1-4.1-2.7,12.38,12.38,0,0,1-2.6-4.3,17.043,17.043,0,0,1-.9-5.7,20.307,20.307,0,0,1,1.3-7.2,19.756,19.756,0,0,1,3.8-6.4,20.027,20.027,0,0,1,6.1-4.6,18.422,18.422,0,0,1,8.3-1.8,21.184,21.184,0,0,1,4.4.5,15.121,15.121,0,0,1,4.5,1.8l-2.6,5.6a18.138,18.138,0,0,0-3.5-1.4,16.562,16.562,0,0,0-3.3-.4,10.607,10.607,0,0,0-4.8,1.1,11.245,11.245,0,0,0-3.6,2.9,11.829,11.829,0,0,0-2.3,4.3,17.015,17.015,0,0,0-.8,5.1q0,4.05,1.8,6a6.568,6.568,0,0,0,5.1,1.9,17.045,17.045,0,0,0,4.1-.5,18,18,0,0,0,3.5-1.2Z"/><path class="cls-4" d="M347.7,195.2l7.7-32.2h21.1l-1.5,6H361.2l-1.5,6.5h12.2l-1.4,5.9H358.3l-1.9,7.9h14.9l-1.5,6H347.7Z"/><path class="cls-4" d="M391.2,162.6a21.464,21.464,0,0,1,5.3.6,11.332,11.332,0,0,1,4,1.8,8.609,8.609,0,0,1,2.5,2.9,8.025,8.025,0,0,1,.9,3.9,13.179,13.179,0,0,1-1.3,5.9,10.634,10.634,0,0,1-3.7,3.9,15.551,15.551,0,0,1-5.6,2.1,37.707,37.707,0,0,1-7,.7h-1.8l-2.6,10.8h-7.2l7.6-31.8c1.7-.3,3.3-.5,4.8-.7C388.5,162.7,389.9,162.6,391.2,162.6Zm-.6,6.1h-1.3c-.4,0-.7.1-1.1.1l-2.2,9.5h1.8a20.158,20.158,0,0,0,3.6-.3,6.622,6.622,0,0,0,2.7-1,6.173,6.173,0,0,0,1.8-1.8,5.4,5.4,0,0,0,.6-2.7,3.22,3.22,0,0,0-1.5-3A10.477,10.477,0,0,0,390.6,168.7Z"/><path class="cls-4" d="M434.5,163l-1.5,6.1h-9.4l-6.3,26.1H410l6.3-26.1h-9.4l1.5-6.1Z"/><path class="cls-4" d="M430.6,195.2l7.7-32.2h21.1l-1.5,6H444.1l-1.5,6.5h12.2l-1.4,5.9H441.2l-1.9,7.9h14.9l-1.5,6H430.6Z"/><path class="cls-4" d="M489.2,175.5a22.443,22.443,0,0,1-1.5,8.4,16.68,16.68,0,0,1-4.4,6.3,20.716,20.716,0,0,1-7,4,29.329,29.329,0,0,1-9.3,1.4c-1.3,0-2.8-.1-4.5-.2-1.7-.2-3.3-.4-4.9-.7l7.5-31.1c1.8-.3,3.5-.6,5.1-.7s3.1-.2,4.4-.2a20.185,20.185,0,0,1,6.2.9,12.448,12.448,0,0,1,4.6,2.7,10.943,10.943,0,0,1,2.9,4.1A15.984,15.984,0,0,1,489.2,175.5Zm-23.1,13.9c.3,0,.7.1,1,.1h1.5a16.271,16.271,0,0,0,5.5-.9,9.815,9.815,0,0,0,4.1-2.7,12.38,12.38,0,0,0,2.6-4.3,17.043,17.043,0,0,0,.9-5.7,9.476,9.476,0,0,0-.4-3,5.506,5.506,0,0,0-1.4-2.3,6.956,6.956,0,0,0-2.5-1.5,12.5,12.5,0,0,0-3.6-.5,26.2,26.2,0,0,0-2.8.1Z"/><path class="cls-4" d="M527.3,163h7.3l-7.8,32.2h-7.3l3.3-13.7H511.4l-3.3,13.7h-7.2l7.7-32.2h7.3l-3,12.4h11.4Z"/><path class="cls-4" d="M533.4,195.2l7.7-32.2h21.1l-1.5,6H546.9l-1.5,6.5h12.2l-1.4,5.9H544l-1.9,7.9H557l-1.5,6H533.4Z"/><path class="cls-4" d="M577.1,162.6a17.265,17.265,0,0,1,5.4.7,12.991,12.991,0,0,1,3.9,2,7.561,7.561,0,0,1,2.3,3,8.571,8.571,0,0,1,.7,3.6,15.263,15.263,0,0,1-.3,3,7.918,7.918,0,0,1-1.3,2.8,10.4,10.4,0,0,1-2.6,2.5,13.015,13.015,0,0,1-4.1,1.9,47.971,47.971,0,0,1,2.7,5.9c.9,2.3,1.8,4.7,2.6,7.2h-7.8c-.7-2.1-1.4-4.3-2.2-6.3a27.28,27.28,0,0,0-2.4-5.4h-3.6l-2.8,11.8h-7.2l7.6-31.8c1.7-.3,3.3-.5,4.9-.7C574.4,162.7,575.8,162.6,577.1,162.6Zm-.2,6.1h-1.6c-.6,0-1,.1-1.4.1l-2.1,8.8h2.5a14.3,14.3,0,0,0,3.8-.4,11.7,11.7,0,0,0,2.5-1.1,3.848,3.848,0,0,0,1.3-1.6,3.922,3.922,0,0,0,.4-1.8,7.719,7.719,0,0,0-.2-1.5,2.577,2.577,0,0,0-.8-1.3,3.54,3.54,0,0,0-1.6-.9A21.861,21.861,0,0,0,576.9,168.7Z"/><path class="cls-4" d="M590.2,195.2l7.7-32.2H619l-1.5,6H603.7l-1.5,6.5h12.2l-1.4,5.9H600.8l-1.9,7.9h14.9l-1.5,6H590.2Z"/><path class="cls-4" d="M195.343,134.583c-3.673,0-7.362-.107-10.99-.351a80.611,80.611,0,0,1-11.386-1.585V67.561a96.784,96.784,0,0,1,10.2-1.3c3.673-.3,7.1-.442,10.288-.442a67.132,67.132,0,0,1,11.783.945,27.7,27.7,0,0,1,9.252,3.125,16.387,16.387,0,0,1,6.067,5.869,17.255,17.255,0,0,1,2.195,8.947q0,8.047-7.759,12.682c4.283,1.585,7.164,3.826,8.7,6.569a19.11,19.11,0,0,1,2.332,9.39c0,7.057-2.592,12.331-7.713,15.867C213.1,132.845,205.5,134.583,195.343,134.583ZM187.692,92.97h7.362c4.679,0,7.956-.594,10-1.783a6.235,6.235,0,0,0,2.987-5.762c0-2.728-1.036-4.618-3.079-5.716q-3.132-1.646-9.1-1.646c-1.3,0-2.683,0-4.177.046s-2.789.107-3.978.244c-.015,0-.015,14.617-.015,14.617Zm0,11.539v17.346c1.1.153,2.286.244,3.582.3s2.728.107,4.283.107a26.132,26.132,0,0,0,10.944-1.936c2.789-1.3,4.176-3.674,4.176-7.164,0-3.079-1.143-5.32-3.475-6.615-2.332-1.342-5.67-1.982-10-1.982h-9.5v-.061Z"/><path class="cls-4" d="M247.549,68.064a7.886,7.886,0,0,1-2.591,6.265,9.193,9.193,0,0,1-12.133,0,8.02,8.02,0,0,1-2.591-6.265,7.886,7.886,0,0,1,2.591-6.265,8.928,8.928,0,0,1,6.066-2.286,8.8,8.8,0,0,1,6.067,2.286A7.934,7.934,0,0,1,247.549,68.064Zm-1.387,65.68H231.743V82.773h14.419Z"/><path class="cls-4" d="M253.921,70.091l14.419-2.332V82.773h17.346V94.8H268.34v17.894a14.475,14.475,0,0,0,1.585,7.256c1.037,1.783,3.232,2.728,6.463,2.728a27.46,27.46,0,0,0,4.771-.442,30.487,30.487,0,0,0,4.527-1.189l2.043,11.234a39.736,39.736,0,0,1-5.823,1.844,34.422,34.422,0,0,1-7.85.793,26.6,26.6,0,0,1-9.8-1.585,14.686,14.686,0,0,1-6.219-4.482,16.462,16.462,0,0,1-3.231-6.9,42.091,42.091,0,0,1-.945-8.994V70.091Z"/><path class="cls-4" d="M287.729,108.274a29.968,29.968,0,0,1,1.783-10.395,24.284,24.284,0,0,1,13.413-14.268,26.705,26.705,0,0,1,11.036-2.134,34.1,34.1,0,0,1,7.454.747,37.453,37.453,0,0,1,6.569,2.089L325,95.851a38.6,38.6,0,0,0-4.482-1.341,22.674,22.674,0,0,0-5.426-.595c-4.283,0-7.454,1.342-9.542,3.979s-3.125,6.112-3.125,10.441c0,4.573.991,8.155,2.927,10.639,1.982,2.531,5.426,3.78,10.289,3.78a32.524,32.524,0,0,0,5.624-.5,23.816,23.816,0,0,0,5.518-1.539l2.043,11.828a33.66,33.66,0,0,1-6.311,1.844,42.8,42.8,0,0,1-8.353.793,31.387,31.387,0,0,1-12.026-2.088,22.721,22.721,0,0,1-8.307-5.67,21.6,21.6,0,0,1-4.726-8.46A42.431,42.431,0,0,1,287.729,108.274Z"/><path class="cls-4" d="M378.513,108.182a33.575,33.575,0,0,1-1.737,10.99,23.519,23.519,0,0,1-5.015,8.506,22.877,22.877,0,0,1-7.911,5.472,28.187,28.187,0,0,1-20.532,0,22.792,22.792,0,0,1-7.91-5.472,24.449,24.449,0,0,1-5.122-8.506,31.144,31.144,0,0,1-1.844-10.99,30.536,30.536,0,0,1,1.89-10.944,24.329,24.329,0,0,1,5.213-8.4,23.51,23.51,0,0,1,7.956-5.427,25.607,25.607,0,0,1,10.045-1.936,26.006,26.006,0,0,1,10.136,1.936,22.687,22.687,0,0,1,7.911,5.427,24.255,24.255,0,0,1,5.122,8.4A32.7,32.7,0,0,1,378.513,108.182Zm-14.709,0c0-4.481-.9-7.956-2.682-10.486a9.519,9.519,0,0,0-15.258,0c-1.784,2.53-2.729,6.066-2.729,10.486,0,4.482.9,8,2.729,10.594a9.366,9.366,0,0,0,15.258,0Q363.8,114.821,363.8,108.182Z"/><path class="cls-4" d="M400.1,68.064a7.886,7.886,0,0,1-2.591,6.265,9.193,9.193,0,0,1-12.133,0,8.021,8.021,0,0,1-2.592-6.265,7.887,7.887,0,0,1,2.592-6.265,8.928,8.928,0,0,1,6.066-2.286,8.8,8.8,0,0,1,6.067,2.286A7.938,7.938,0,0,1,400.1,68.064Zm-1.341,65.68h-14.42V82.773h14.42Z"/><path class="cls-4" d="M406.956,84.511a78.317,78.317,0,0,1,9.5-1.982,80.49,80.49,0,0,1,12.179-.945,29.428,29.428,0,0,1,10.792,1.692,16.2,16.2,0,0,1,6.813,4.771,18.565,18.565,0,0,1,3.582,7.362,39.758,39.758,0,0,1,1.037,9.5V133.7h-14.42V106.643c0-4.679-.594-7.957-1.844-9.892s-3.536-2.881-6.859-2.881c-1.037,0-2.134.045-3.277.152s-2.195.2-3.079.351V133.7h-14.42V84.511Z"/><path class="cls-4" d="M490.287,135.086c-10.944,0-19.236-3.034-24.952-9.1s-8.551-14.664-8.551-25.852a39.861,39.861,0,0,1,2.637-14.861,31.662,31.662,0,0,1,7.164-11.036,30.126,30.126,0,0,1,10.838-6.813A39.293,39.293,0,0,1,491.1,65.092a41.936,41.936,0,0,1,7.759.64,45.924,45.924,0,0,1,6.112,1.448,30.332,30.332,0,0,1,4.375,1.692c1.143.594,1.981,1.036,2.53,1.341L507.5,82.392a35.673,35.673,0,0,0-7.21-2.789,33.717,33.717,0,0,0-9.343-1.144,21.121,21.121,0,0,0-6.814,1.144,16.031,16.031,0,0,0-5.914,3.734,19.154,19.154,0,0,0-4.131,6.615,27.939,27.939,0,0,0-1.539,9.893,37.334,37.334,0,0,0,.991,8.658,18.953,18.953,0,0,0,3.277,6.9,15.924,15.924,0,0,0,5.96,4.619,20.944,20.944,0,0,0,8.9,1.692,42.679,42.679,0,0,0,5.914-.4,35.327,35.327,0,0,0,4.68-.945,26.8,26.8,0,0,0,3.582-1.189c1.036-.442,1.981-.9,2.789-1.25l4.177,12.133a35.372,35.372,0,0,1-8.993,3.475A53.486,53.486,0,0,1,490.287,135.086Z"/><path class="cls-4" d="M535.436,81.432a33.891,33.891,0,0,1,10.639,1.448,15.833,15.833,0,0,1,6.814,4.176,15.423,15.423,0,0,1,3.627,6.57,32.943,32.943,0,0,1,1.037,8.6v30.028c-2.088.442-4.923.99-8.6,1.585a84.922,84.922,0,0,1-13.368.945,41.135,41.135,0,0,1-8.947-.9,20.043,20.043,0,0,1-6.9-2.835,13.354,13.354,0,0,1-4.481-5.167,17.789,17.789,0,0,1-1.54-7.85,14.956,14.956,0,0,1,1.784-7.56,13.324,13.324,0,0,1,4.771-4.923,20.937,20.937,0,0,1,6.859-2.683,38.728,38.728,0,0,1,8.048-.839c1.89,0,3.536.107,4.969.244a18.327,18.327,0,0,1,3.536.641v-1.342a8.014,8.014,0,0,0-2.24-5.914c-1.494-1.494-4.07-2.241-7.759-2.241a50.038,50.038,0,0,0-7.255.549,30.316,30.316,0,0,0-6.219,1.494l-1.845-11.63c.839-.244,1.89-.549,3.125-.838,1.25-.3,2.637-.549,4.131-.793s3.033-.4,4.679-.595C532.052,81.538,533.744,81.432,535.436,81.432Zm1.143,42.206c1.448,0,2.789-.045,4.07-.106a19.754,19.754,0,0,0,3.079-.3V112.283a26.092,26.092,0,0,0-2.637-.4,24.422,24.422,0,0,0-3.186-.2,33.521,33.521,0,0,0-3.826.244,8.452,8.452,0,0,0-3.124.945,5.327,5.327,0,0,0-2.134,1.845,5.241,5.241,0,0,0-.793,2.88c0,2.241.747,3.826,2.286,4.68A11.806,11.806,0,0,0,536.579,123.638Z"/><path class="cls-4" d="M579.975,123.4a13.808,13.808,0,0,0,5.624-.793,2.992,2.992,0,0,0,1.646-2.988,3.615,3.615,0,0,0-2.134-3.033,37.867,37.867,0,0,0-6.508-2.926,57.582,57.582,0,0,1-6.158-2.637,17.314,17.314,0,0,1-4.68-3.232,12.948,12.948,0,0,1-2.987-4.527,16.837,16.837,0,0,1-1.037-6.31,13.693,13.693,0,0,1,5.32-11.341q5.3-4.184,14.618-4.176a48.166,48.166,0,0,1,8.9.838,41.238,41.238,0,0,1,6.768,1.783l-2.53,11.234a47.022,47.022,0,0,0-5.472-1.539,30.284,30.284,0,0,0-6.616-.7c-4.527,0-6.767,1.249-6.767,3.78a3.7,3.7,0,0,0,.3,1.539,3.428,3.428,0,0,0,1.144,1.3A15.42,15.42,0,0,0,581.8,101a33.6,33.6,0,0,0,3.826,1.585,60.752,60.752,0,0,1,7.85,3.476,19.385,19.385,0,0,1,4.877,3.673,11.818,11.818,0,0,1,2.531,4.375,18.759,18.759,0,0,1,.746,5.624c0,5.015-1.89,8.856-5.67,11.387-3.78,2.591-9.1,3.871-16.005,3.871a47.323,47.323,0,0,1-11.279-1.143,57.275,57.275,0,0,1-6.265-1.936l2.439-11.737a49.131,49.131,0,0,0,7.56,2.287A31.135,31.135,0,0,0,579.975,123.4Z"/><path class="cls-4" d="M606.985,133.744V60.9L621.4,58.568V82.987a33.624,33.624,0,0,1,3.734-.946,22.632,22.632,0,0,1,4.421-.442,26.8,26.8,0,0,1,10.289,1.692,16.366,16.366,0,0,1,6.569,4.771,18.816,18.816,0,0,1,3.475,7.362,39.813,39.813,0,0,1,.991,9.5v28.793H636.464V106.643c0-4.679-.6-7.957-1.784-9.892s-3.429-2.881-6.615-2.881a17.271,17.271,0,0,0-3.628.35,27.6,27.6,0,0,0-3.033.747V133.7H606.985Z"/><path class="cls-4" d="M125.791,134.939a46.627,46.627,0,0,0,0-76.367h35.043v76.367Z"/><path class="cls-4" d="M52.431,96.749A46.547,46.547,0,0,0,72.3,134.927H37.217V58.572H72.3A46.545,46.545,0,0,0,52.431,96.749Z"/><path class="cls-4" d="M103.168,90.935l.024-.034.013-.015.017-.022.007-.012.017-.023.007-.011.017-.023.007-.012.017-.022.007-.012.014-.02.006-.012.015-.021.006-.012.015-.02.007-.012.014-.021.007-.011.014-.021.006-.012.015-.02.006-.012.015-.021.007-.012.015-.02.006-.012.011-.019.007-.012.011-.019.006-.011.011-.019.007-.012.011-.019,0-.01.011-.019,0-.01.011-.018,0-.01.011-.019,0-.01.011-.019,0-.01.011-.019,0-.01.008-.017,0-.01.011-.018.014-.029.027-.061a3.514,3.514,0,0,0,.23-2.155l0-.009a.329.329,0,0,1-.015-.06l0,0-.01-.019a.477.477,0,0,0-.017-.093c-.007-.03-.016-.054-.024-.085l-.011-.02v0l-.019-.058,0-.01a3.506,3.506,0,0,0-1.241-1.778c-.019-.011-.036-.027-.055-.038l-.025-.015-.019-.011-.007,0-.015-.013-.007,0L102.4,85.7l-.007,0-.019-.011-.006,0-.019-.011-.007,0-.019-.011-.008-.008-.019-.011-.012-.006-.019-.011-.012-.007-.018-.011-.012-.006-.019-.011-.012-.007-.019-.011-.012-.006-.02-.015-.012-.006-.021-.014-.012-.007-.02-.014-.012-.007-.024-.012-.012-.007-.024-.012L102,85.454l-.024-.012-.012-.006-.024-.013-.012-.007L101.9,85.4l-.012-.006-.024-.013-.011-.006-.024-.013-.012-.006-.024-.013-.012-.006-.024-.013-.017-.008L101.7,85.3a6.112,6.112,0,0,0-4.136-.321c-.945.246-3.809.965-4.5,1.143L95.2,94.381c.693-.179,3.55-.928,4.5-1.17A6.1,6.1,0,0,0,103.168,90.935Z"/><path class="cls-4" d="M108.965,100.194l0,0,0,0,0,0c0-.024-.009-.042-.014-.065v0l-.011-.02h0c0-.046,0-.082-.012-.085-.009-.034-.017-.063-.024-.093l-.011-.02,0,0-.02-.06-.007-.014a3.622,3.622,0,0,0-1.419-1.9c-.021-.014-.045-.026-.065-.041l-.027-.019-.021-.016-.012-.006-.018-.011-.012-.006-.021-.015-.012-.006-.02-.015-.012-.006-.02-.015-.012-.007-.021-.014-.012-.006-.02-.015-.012-.006L107.1,97.7l-.012-.006-.024-.013-.012-.006-.023-.013-.012-.006-.024-.013-.012-.006-.024-.013-.012-.006-.024-.013-.012-.006-.023-.013-.012-.006-.024-.013-.012-.006-.024-.012-.012-.007-.029-.014-.012-.006-.028-.014-.012-.007-.029-.014-.012-.006-.029-.014-.015-.005-.029-.014-.015,0-.029-.014-.015,0-.032-.013-.022-.009-.044-.019a7.708,7.708,0,0,0-4.869-.249c-1.121.289-4.515,1.142-5.337,1.355l2.3,8.968c.824-.21,4.209-1.095,5.329-1.385a7.687,7.687,0,0,0,4.146-2.567l.031-.037.016-.017.019-.028.01-.013.019-.028.009-.013.02-.028.009-.013.02-.027.009-.014.02-.027.009-.014.016-.026.01-.013.015-.026.006-.012.016-.025.007-.012.015-.026.006-.011.018-.023.006-.012.018-.022.006-.012.015-.02.006-.012.015-.021.007-.012.014-.02.006-.012.015-.021.006-.011.015-.021.006-.012.014-.02.007-.012.015-.021.006-.011.016-.021.006-.012.014-.02.007-.012.011-.019.006-.012.011-.019.007-.012.012-.023.018-.031.036-.066a3.61,3.61,0,0,0,.327-2.355Z"/><path class="cls-4" d="M99.026,58.579A38.152,38.152,0,1,0,137.177,96.73,38.151,38.151,0,0,0,99.026,58.579Zm17.628,44.871v0c-.016.042-.036.083-.055.127l-.025.056-.019.044-.008.017-.017.039-.011.018-.017.039-.011.019-.021.041-.011.019-.02.04-.011.019-.021.041-.011.019-.02.04-.011.019-.021.041-.011.019-.02.04-.01.023-.024.042-.009.022-.024.042-.012.024-.024.043-.013.024-.024.042-.012.024-.027.044-.013.024-.027.044-.013.024-.025.048-.012.023-.026.048-.012.024-.029.049-.012.024-.029.049-.013.024-.028.049-.015.026-.029.049-.016.026-.032.051-.015.025-.032.051-.024.034,0,0-.05.073a11.786,11.786,0,0,1-6.9,4.726l-1.689.438,1.754,6.826-4.058,1.044-1.749-6.8-3.248.833,1.748,6.8-4.06,1.044-1.769-6.783-8.364,2.149-.174-5.15,2.957-.761a1.4,1.4,0,0,0,1-1.7L86.45,89.7v0a2.09,2.09,0,0,0-2.543-1.5l-3.374.867-1.114-4.33,8.374-2.155-1.747-6.8,4.06-1.041,1.748,6.774,3.248-.832-1.746-6.8,4.06-1.041,1.753,6.823.693-.178a10.463,10.463,0,0,1,7.393.725l.071.038,0,0,.034.015.048.025.023.013.048.025.024.013.044.027.024.012.044.027.021.015.041.023.021.014.042.024.021.015.042.023.019.011.042.024.019.011.039.026.019.011.039.025.019.011.038.023.018.011.038.022.02.012.038.022.018.012.038.022.019.011.034.024.018.011.034.024.019.011.034.024.015.013.035.024.015.013.034.024.015.013.031.019.015.013.029.023.015.013.029.022.015.013.035.024.042.032c.031.027.066.051.1.076l0,0a6.923,6.923,0,0,1,2.267,3.392v0l0,0,0,0,0,0,0,0,0,0v0l.034.109,0,.007.02.036c.015.051.032.106.043.159s.028.108.04.161l.016.029,0,0,0,0v.008c.011.037.019.075.027.113v0l0,0,0,0,0,0,0,0,0,0,0,.007,0,0a6.917,6.917,0,0,1-.352,4.064l0,0c-.018.039-.031.076-.048.115l-.024.051-.017.039-.008.017-.015.034-.008.017-.015.033-.008.017-.015.034-.008.017-.019.036-.008.017-.019.035-.008.017-.019.036-.008.017-.019.035-.011.019-.019.036-.011.018-.022.038-.011.019-.022.037-.011.019-.021.041-.011.018-.02.041-.012.019-.02.04-.011.019-.024.043-.011.018-.024.043-.011.018-.024.043-.014.02-.024.043-.014.02-.027.044-.016.021-.027.044-.014.021-.027.044-.014.02-.028.045-.014.02-.027.044-.021.033,0,0-.045.066a9.652,9.652,0,0,1-.933,1.172,10.87,10.87,0,0,1,3.483,1.1c.026.016.053.027.079.043v0l.036.019.052.027.026.016.052.027.026.015.049.028.026.016.049.028.024.013.049.028.024.013.049.028.024.013.048.025.023.013.045.027.024.013.044.027.02.014.045.027.02.014.044.027.021.015.044.027.021.014.041.029.02.015.039.025.021.014.039.026.021.014.039.026.02.014.023.035.019.011.039.025L113.9,94l.036.027.019.011.036.027.015.013.034.024.015.013.034.024.015.013.036.027.05.037c.036.028.073.058.109.085l0,0a7.8,7.8,0,0,1,2.548,3.812l0,.007,0,0v0l0,0,0,0,0,0v0c.015.043.025.085.037.124l0,.007.021.039c0,.07.012.133.011.169.018.057.03.119.046.179l.007.013v0l0,0,0,0,0,0,0,0v0l0,0,0,0,0,0,0,0v0l0,0,0,0v.009c.01.041.019.083.029.124l0,0v0l0,0,0,0,0,0,0,0,0,0v0A7.8,7.8,0,0,1,116.654,103.45Z"/></svg>